solid OpenSCAD_Model
  facet normal -1 0 0
    outer loop
      vertex 0 3.5 0
      vertex 0 1.55 1.6
      vertex 0 3.5 1.6
    endloop
  endfacet
  facet normal -1 0 0
    outer loop
      vertex 0 1.55 1.6
      vertex 0 0.775 8.6
      vertex 0 1.55 8.6
    endloop
  endfacet
  facet normal -1 0 0
    outer loop
      vertex 0 0 0
      vertex 0 1.55 1.6
      vertex 0 3.5 0
    endloop
  endfacet
  facet normal -1 0 0
    outer loop
      vertex 0 0 0
      vertex 0 0.775 8.6
      vertex 0 1.55 1.6
    endloop
  endfacet
  facet normal -1 0 0
    outer loop
      vertex 0 0 9.6
      vertex 0 0.775 8.6
      vertex 0 0 0
    endloop
  endfacet
  facet normal -1 0 0
    outer loop
      vertex 0 0.775 8.6
      vertex 0 0 9.6
      vertex 0 0.775 9.6
    endloop
  endfacet
  facet normal -1 0 0
    outer loop
      vertex 0 64 0
      vertex 0 63.225 8.6
      vertex 0 64 9.6
    endloop
  endfacet
  facet normal -1 0 0
    outer loop
      vertex 0 64 0
      vertex 0 62.45 1.6
      vertex 0 63.225 8.6
    endloop
  endfacet
  facet normal -1 0 0
    outer loop
      vertex 0 60.5 0
      vertex 0 62.45 1.6
      vertex 0 64 0
    endloop
  endfacet
  facet normal -1 -0 0
    outer loop
      vertex 0 62.45 1.6
      vertex 0 60.5 0
      vertex 0 60.5 1.6
    endloop
  endfacet
  facet normal -1 -0 0
    outer loop
      vertex 0 64 9.6
      vertex 0 63.225 8.6
      vertex 0 63.225 9.6
    endloop
  endfacet
  facet normal -1 -0 0
    outer loop
      vertex 0 63.225 8.6
      vertex 0 62.45 1.6
      vertex 0 62.45 8.6
    endloop
  endfacet
  facet normal 0 0 1
    outer loop
      vertex 80 64 9.6
      vertex 79.225 63.225 9.6
      vertex 80 0 9.6
    endloop
  endfacet
  facet normal -0 0 1
    outer loop
      vertex 0 64 9.6
      vertex 79.225 63.225 9.6
      vertex 80 64 9.6
    endloop
  endfacet
  facet normal 0 0 1
    outer loop
      vertex 79.225 63.225 9.6
      vertex 0 64 9.6
      vertex 0 63.225 9.6
    endloop
  endfacet
  facet normal -0 0 1
    outer loop
      vertex 79.225 0.775 9.6
      vertex 80 0 9.6
      vertex 79.225 63.225 9.6
    endloop
  endfacet
  facet normal 0 0 1
    outer loop
      vertex 0 0 9.6
      vertex 79.225 0.775 9.6
      vertex 0 0.775 9.6
    endloop
  endfacet
  facet normal 0 0 1
    outer loop
      vertex 79.225 0.775 9.6
      vertex 0 0 9.6
      vertex 80 0 9.6
    endloop
  endfacet
  facet normal 1 -0 0
    outer loop
      vertex 80 0 9.6
      vertex 80 64 0
      vertex 80 64 9.6
    endloop
  endfacet
  facet normal 1 0 0
    outer loop
      vertex 80 64 0
      vertex 80 0 9.6
      vertex 80 0 0
    endloop
  endfacet
  facet normal 0 0 -1
    outer loop
      vertex 67.3097 9.95671 0
      vertex 80 0 0
      vertex 67.5 9 0
    endloop
  endfacet
  facet normal 0 0 -1
    outer loop
      vertex 80 0 0
      vertex 67.3097 8.04329 0
      vertex 67.5 9 0
    endloop
  endfacet
  facet normal 0 0 -1
    outer loop
      vertex 80 0 0
      vertex 66.7678 7.23223 0
      vertex 67.3097 8.04329 0
    endloop
  endfacet
  facet normal 0 0 -1
    outer loop
      vertex 80 0 0
      vertex 65.9567 6.6903 0
      vertex 66.7678 7.23223 0
    endloop
  endfacet
  facet normal 0 0 -1
    outer loop
      vertex 80 0 0
      vertex 65 6.5 0
      vertex 65.9567 6.6903 0
    endloop
  endfacet
  facet normal 0 0 -1
    outer loop
      vertex 80 0 0
      vertex 64.0433 6.6903 0
      vertex 65 6.5 0
    endloop
  endfacet
  facet normal -0 0 -1
    outer loop
      vertex 62.6903 8.04329 0
      vertex 10 3.5 0
      vertex 62.5 9 0
    endloop
  endfacet
  facet normal -0 0 -1
    outer loop
      vertex 63.2322 7.23223 0
      vertex 10 3.5 0
      vertex 62.6903 8.04329 0
    endloop
  endfacet
  facet normal -0 0 -1
    outer loop
      vertex 64.0433 6.6903 0
      vertex 10 3.5 0
      vertex 63.2322 7.23223 0
    endloop
  endfacet
  facet normal 0 0 -1
    outer loop
      vertex 80 0 0
      vertex 10 3.5 0
      vertex 64.0433 6.6903 0
    endloop
  endfacet
  facet normal 0 0 -1
    outer loop
      vertex 0 0 0
      vertex 10 3.5 0
      vertex 80 0 0
    endloop
  endfacet
  facet normal -0 0 -1
    outer loop
      vertex 10 3.5 0
      vertex 0 0 0
      vertex 0 3.5 0
    endloop
  endfacet
  facet normal 0 0 -1
    outer loop
      vertex 66.7678 10.7678 0
      vertex 80 0 0
      vertex 67.3097 9.95671 0
    endloop
  endfacet
  facet normal 0 0 -1
    outer loop
      vertex 80 0 0
      vertex 66.7678 10.7678 0
      vertex 80 64 0
    endloop
  endfacet
  facet normal 0 0 -1
    outer loop
      vertex 65.9567 11.3097 0
      vertex 80 64 0
      vertex 66.7678 10.7678 0
    endloop
  endfacet
  facet normal 0 0 -1
    outer loop
      vertex 65 11.5 0
      vertex 80 64 0
      vertex 65.9567 11.3097 0
    endloop
  endfacet
  facet normal 0 0 -1
    outer loop
      vertex 64.0433 11.3097 0
      vertex 80 64 0
      vertex 65 11.5 0
    endloop
  endfacet
  facet normal 0 0 -1
    outer loop
      vertex 10 60.5 0
      vertex 64.0433 11.3097 0
      vertex 63.2322 10.7678 0
    endloop
  endfacet
  facet normal 0 0 -1
    outer loop
      vertex 10 3.5 0
      vertex 63.2322 10.7678 0
      vertex 62.6903 9.95671 0
    endloop
  endfacet
  facet normal 0 0 -1
    outer loop
      vertex 10 3.5 0
      vertex 62.6903 9.95671 0
      vertex 62.5 9 0
    endloop
  endfacet
  facet normal -0 0 -1
    outer loop
      vertex 63.2322 10.7678 0
      vertex 10 3.5 0
      vertex 10 60.5 0
    endloop
  endfacet
  facet normal 0 0 -1
    outer loop
      vertex 64.0433 11.3097 0
      vertex 10 60.5 0
      vertex 80 64 0
    endloop
  endfacet
  facet normal 0 0 -1
    outer loop
      vertex 0 64 0
      vertex 10 60.5 0
      vertex 0 60.5 0
    endloop
  endfacet
  facet normal 0 0 -1
    outer loop
      vertex 10 60.5 0
      vertex 0 64 0
      vertex 80 64 0
    endloop
  endfacet
  facet normal 0 -1 0
    outer loop
      vertex 0 0 0
      vertex 80 0 9.6
      vertex 0 0 9.6
    endloop
  endfacet
  facet normal 0 -1 -0
    outer loop
      vertex 80 0 9.6
      vertex 0 0 0
      vertex 80 0 0
    endloop
  endfacet
  facet normal 0 1 -0
    outer loop
      vertex 80 64 0
      vertex 0 64 9.6
      vertex 80 64 9.6
    endloop
  endfacet
  facet normal 0 1 0
    outer loop
      vertex 0 64 9.6
      vertex 80 64 0
      vertex 0 64 0
    endloop
  endfacet
  facet normal -1 0 0
    outer loop
      vertex 79.225 0.775 8.6
      vertex 79.225 63.225 9.6
      vertex 79.225 63.225 8.6
    endloop
  endfacet
  facet normal -1 -0 0
    outer loop
      vertex 79.225 63.225 9.6
      vertex 79.225 0.775 8.6
      vertex 79.225 0.775 9.6
    endloop
  endfacet
  facet normal 0 -1 0
    outer loop
      vertex 17 63.225 8.6
      vertex 0 63.225 9.6
      vertex 0 63.225 8.6
    endloop
  endfacet
  facet normal 0 -1 0
    outer loop
      vertex 18.15 63.225 8.6
      vertex 0 63.225 9.6
      vertex 17 63.225 8.6
    endloop
  endfacet
  facet normal 0 -1 0
    outer loop
      vertex 0 63.225 9.6
      vertex 18.15 63.225 8.6
      vertex 79.225 63.225 9.6
    endloop
  endfacet
  facet normal 0 -1 -0
    outer loop
      vertex 79.225 63.225 9.6
      vertex 18.15 63.225 8.6
      vertex 79.225 63.225 8.6
    endloop
  endfacet
  facet normal 0 0 1
    outer loop
      vertex 17 1.55 8.6
      vertex 18.15 1.55 8.6
      vertex 18.15 4.5 8.6
    endloop
  endfacet
  facet normal 0 0 1
    outer loop
      vertex 17 1.55 8.6
      vertex 18.15 4.5 8.6
      vertex 17 4.5 8.6
    endloop
  endfacet
  facet normal 0 0 1
    outer loop
      vertex 18.15 1.55 8.6
      vertex 17 1.55 8.6
      vertex 18.15 0.775 8.6
    endloop
  endfacet
  facet normal 0 0 1
    outer loop
      vertex 18.15 0.775 8.6
      vertex 17 1.55 8.6
      vertex 17 0.775 8.6
    endloop
  endfacet
  facet normal 0 0 1
    outer loop
      vertex 17 62.45 8.6
      vertex 18.15 62.45 8.6
      vertex 18.15 63.225 8.6
    endloop
  endfacet
  facet normal 0 0 1
    outer loop
      vertex 17 62.45 8.6
      vertex 18.15 63.225 8.6
      vertex 17 63.225 8.6
    endloop
  endfacet
  facet normal 0 0 1
    outer loop
      vertex 18.15 62.45 8.6
      vertex 17 62.45 8.6
      vertex 18.15 59.5 8.6
    endloop
  endfacet
  facet normal 0 0 1
    outer loop
      vertex 18.15 59.5 8.6
      vertex 17 62.45 8.6
      vertex 17 59.5 8.6
    endloop
  endfacet
  facet normal -0 0 1
    outer loop
      vertex 0 1.55 8.6
      vertex 17 0.775 8.6
      vertex 17 1.55 8.6
    endloop
  endfacet
  facet normal 0 0 1
    outer loop
      vertex 17 0.775 8.6
      vertex 0 1.55 8.6
      vertex 0 0.775 8.6
    endloop
  endfacet
  facet normal 0 0 1
    outer loop
      vertex 79.225 63.225 8.6
      vertex 78.45 62.45 8.6
      vertex 79.225 0.775 8.6
    endloop
  endfacet
  facet normal -0 0 1
    outer loop
      vertex 18.15 63.225 8.6
      vertex 78.45 62.45 8.6
      vertex 79.225 63.225 8.6
    endloop
  endfacet
  facet normal 0 0 1
    outer loop
      vertex 78.45 62.45 8.6
      vertex 18.15 63.225 8.6
      vertex 18.15 62.45 8.6
    endloop
  endfacet
  facet normal -0 0 1
    outer loop
      vertex 78.45 1.55 8.6
      vertex 79.225 0.775 8.6
      vertex 78.45 62.45 8.6
    endloop
  endfacet
  facet normal 0 0 1
    outer loop
      vertex 18.15 0.775 8.6
      vertex 78.45 1.55 8.6
      vertex 18.15 1.55 8.6
    endloop
  endfacet
  facet normal 0 0 1
    outer loop
      vertex 78.45 1.55 8.6
      vertex 18.15 0.775 8.6
      vertex 79.225 0.775 8.6
    endloop
  endfacet
  facet normal -0 0 1
    outer loop
      vertex 0 63.225 8.6
      vertex 17 62.45 8.6
      vertex 17 63.225 8.6
    endloop
  endfacet
  facet normal 0 0 1
    outer loop
      vertex 17 62.45 8.6
      vertex 0 63.225 8.6
      vertex 0 62.45 8.6
    endloop
  endfacet
  facet normal 0 1 0
    outer loop
      vertex 18.15 0.775 8.6
      vertex 79.225 0.775 9.6
      vertex 79.225 0.775 8.6
    endloop
  endfacet
  facet normal 0 1 0
    outer loop
      vertex 79.225 0.775 9.6
      vertex 18.15 0.775 8.6
      vertex 0 0.775 9.6
    endloop
  endfacet
  facet normal 0 1 -0
    outer loop
      vertex 17 0.775 8.6
      vertex 0 0.775 9.6
      vertex 18.15 0.775 8.6
    endloop
  endfacet
  facet normal 0 1 0
    outer loop
      vertex 0 0.775 9.6
      vertex 17 0.775 8.6
      vertex 0 0.775 8.6
    endloop
  endfacet
  facet normal -1 0 0
    outer loop
      vertex 78.45 1.55 1.6
      vertex 78.45 62.45 8.6
      vertex 78.45 62.45 1.6
    endloop
  endfacet
  facet normal -1 -0 0
    outer loop
      vertex 78.45 62.45 8.6
      vertex 78.45 1.55 1.6
      vertex 78.45 1.55 8.6
    endloop
  endfacet
  facet normal 0 -1 0
    outer loop
      vertex 18.15 62.45 8.6
      vertex 60 62.45 7.6
      vertex 78.45 62.45 8.6
    endloop
  endfacet
  facet normal 0 -1 0
    outer loop
      vertex 18.15 62.45 1.6
      vertex 60 62.45 7.6
      vertex 18.15 62.45 8.6
    endloop
  endfacet
  facet normal 0 -1 -0
    outer loop
      vertex 60 62.45 7.6
      vertex 18.15 62.45 1.6
      vertex 60 62.45 1.6
    endloop
  endfacet
  facet normal 0 -1 0
    outer loop
      vertex 61.15 62.45 7.6
      vertex 78.45 62.45 8.6
      vertex 60 62.45 7.6
    endloop
  endfacet
  facet normal 0 -1 0
    outer loop
      vertex 78.45 62.45 1.6
      vertex 61.15 62.45 7.6
      vertex 61.15 62.45 1.6
    endloop
  endfacet
  facet normal 0 -1 0
    outer loop
      vertex 61.15 62.45 7.6
      vertex 78.45 62.45 1.6
      vertex 78.45 62.45 8.6
    endloop
  endfacet
  facet normal 0 -1 0
    outer loop
      vertex 0 62.45 1.6
      vertex 17 62.45 8.6
      vertex 0 62.45 8.6
    endloop
  endfacet
  facet normal 0 -1 -0
    outer loop
      vertex 17 62.45 8.6
      vertex 0 62.45 1.6
      vertex 17 62.45 1.6
    endloop
  endfacet
  facet normal 0 0 1
    outer loop
      vertex 17 62.45 1.6
      vertex 10 60.5 1.6
      vertex 17 1.55 1.6
    endloop
  endfacet
  facet normal -0 0 1
    outer loop
      vertex 0 62.45 1.6
      vertex 10 60.5 1.6
      vertex 17 62.45 1.6
    endloop
  endfacet
  facet normal 0 0 1
    outer loop
      vertex 10 60.5 1.6
      vertex 0 62.45 1.6
      vertex 0 60.5 1.6
    endloop
  endfacet
  facet normal -0 0 1
    outer loop
      vertex 10 3.5 1.6
      vertex 17 1.55 1.6
      vertex 10 60.5 1.6
    endloop
  endfacet
  facet normal 0 0 1
    outer loop
      vertex 0 1.55 1.6
      vertex 10 3.5 1.6
      vertex 0 3.5 1.6
    endloop
  endfacet
  facet normal 0 0 1
    outer loop
      vertex 10 3.5 1.6
      vertex 0 1.55 1.6
      vertex 17 1.55 1.6
    endloop
  endfacet
  facet normal 0 0 1
    outer loop
      vertex 63.2322 10.7678 1.6
      vertex 34.1366 10 1.6
      vertex 60 7 1.6
    endloop
  endfacet
  facet normal 0 0 1
    outer loop
      vertex 63.2322 10.7678 1.6
      vertex 34.017 10.7938 1.6
      vertex 34.1366 10 1.6
    endloop
  endfacet
  facet normal 0 0 1
    outer loop
      vertex 33.5017 52.1361 1.6
      vertex 60 57 1.6
      vertex 33.5916 52.2331 1.6
    endloop
  endfacet
  facet normal 0 0 1
    outer loop
      vertex 63.2322 10.7678 1.6
      vertex 33.9973 10.9245 1.6
      vertex 34.017 10.7938 1.6
    endloop
  endfacet
  facet normal 0 0 1
    outer loop
      vertex 32.9557 51.5477 1.6
      vertex 60 57 1.6
      vertex 33.5017 52.1361 1.6
    endloop
  endfacet
  facet normal 0 0 1
    outer loop
      vertex 63.2322 10.7678 1.6
      vertex 33.9399 11.0437 1.6
      vertex 33.9973 10.9245 1.6
    endloop
  endfacet
  facet normal 0 0 1
    outer loop
      vertex 60 57 1.6
      vertex 32.9557 51.5477 1.6
      vertex 64.0433 11.3097 1.6
    endloop
  endfacet
  facet normal 0 0 1
    outer loop
      vertex 63.2322 10.7678 1.6
      vertex 33.5916 11.7669 1.6
      vertex 33.9399 11.0437 1.6
    endloop
  endfacet
  facet normal 0 0 1
    outer loop
      vertex 64.0433 11.3097 1.6
      vertex 32.9557 51.5477 1.6
      vertex 63.2322 10.7678 1.6
    endloop
  endfacet
  facet normal 0 0 1
    outer loop
      vertex 63.2322 10.7678 1.6
      vertex 33.5017 11.8639 1.6
      vertex 33.5916 11.7669 1.6
    endloop
  endfacet
  facet normal -0 0 1
    outer loop
      vertex 32.9557 12.4523 1.6
      vertex 63.2322 10.7678 1.6
      vertex 32.9557 51.5477 1.6
    endloop
  endfacet
  facet normal 0 0 1
    outer loop
      vertex 63.2322 10.7678 1.6
      vertex 32.9557 12.4523 1.6
      vertex 33.5017 11.8639 1.6
    endloop
  endfacet
  facet normal -0 0 1
    outer loop
      vertex 32.2604 51.1463 1.6
      vertex 32.9557 12.4523 1.6
      vertex 32.9557 51.5477 1.6
    endloop
  endfacet
  facet normal 0 0 1
    outer loop
      vertex 32.2604 51.1463 1.6
      vertex 32.2604 12.8537 1.6
      vertex 32.9557 12.4523 1.6
    endloop
  endfacet
  facet normal -0 0 1
    outer loop
      vertex 32.1459 51.0802 1.6
      vertex 32.2604 12.8537 1.6
      vertex 32.2604 51.1463 1.6
    endloop
  endfacet
  facet normal 0 0 1
    outer loop
      vertex 32.1459 51.0802 1.6
      vertex 32.1459 12.9198 1.6
      vertex 32.2604 12.8537 1.6
    endloop
  endfacet
  facet normal -0 0 1
    outer loop
      vertex 32.017 51.0508 1.6
      vertex 32.1459 12.9198 1.6
      vertex 32.1459 51.0802 1.6
    endloop
  endfacet
  facet normal 0 0 1
    outer loop
      vertex 32.017 51.0508 1.6
      vertex 32.017 12.9492 1.6
      vertex 32.1459 12.9198 1.6
    endloop
  endfacet
  facet normal -0 0 1
    outer loop
      vertex 31.2344 50.8721 1.6
      vertex 32.017 12.9492 1.6
      vertex 32.017 51.0508 1.6
    endloop
  endfacet
  facet normal 0 0 1
    outer loop
      vertex 31.2344 50.8721 1.6
      vertex 31.2344 13.1279 1.6
      vertex 32.017 12.9492 1.6
    endloop
  endfacet
  facet normal 0 0 1
    outer loop
      vertex 30.4339 50.9321 1.6
      vertex 31.2344 13.1279 1.6
      vertex 31.2344 50.8721 1.6
    endloop
  endfacet
  facet normal 0 0 1
    outer loop
      vertex 30.4339 50.9321 1.6
      vertex 30.4339 13.0679 1.6
      vertex 31.2344 13.1279 1.6
    endloop
  endfacet
  facet normal 0 0 1
    outer loop
      vertex 30.302 50.942 1.6
      vertex 30.4339 13.0679 1.6
      vertex 30.4339 50.9321 1.6
    endloop
  endfacet
  facet normal 0 0 1
    outer loop
      vertex 30.302 50.942 1.6
      vertex 30.302 13.058 1.6
      vertex 30.4339 13.0679 1.6
    endloop
  endfacet
  facet normal 0 0 1
    outer loop
      vertex 30.179 50.9903 1.6
      vertex 30.302 13.058 1.6
      vertex 30.302 50.942 1.6
    endloop
  endfacet
  facet normal 0 0 1
    outer loop
      vertex 30.179 50.9903 1.6
      vertex 30.179 13.0097 1.6
      vertex 30.302 13.058 1.6
    endloop
  endfacet
  facet normal 0 0 1
    outer loop
      vertex 29.4317 51.2836 1.6
      vertex 30.179 13.0097 1.6
      vertex 30.179 50.9903 1.6
    endloop
  endfacet
  facet normal 0 0 1
    outer loop
      vertex 29.4317 51.2836 1.6
      vertex 29.4317 12.7164 1.6
      vertex 30.179 13.0097 1.6
    endloop
  endfacet
  facet normal 0 0 1
    outer loop
      vertex 29.3283 51.366 1.6
      vertex 29.4317 12.7164 1.6
      vertex 29.4317 51.2836 1.6
    endloop
  endfacet
  facet normal 0 0 1
    outer loop
      vertex 29.3283 51.366 1.6
      vertex 29.3283 12.634 1.6
      vertex 29.4317 12.7164 1.6
    endloop
  endfacet
  facet normal 0 0 1
    outer loop
      vertex 28.7007 51.8665 1.6
      vertex 29.3283 12.634 1.6
      vertex 29.3283 51.366 1.6
    endloop
  endfacet
  facet normal 0 0 1
    outer loop
      vertex 28.7007 51.8665 1.6
      vertex 28.7007 12.1335 1.6
      vertex 29.3283 12.634 1.6
    endloop
  endfacet
  facet normal 0 0 1
    outer loop
      vertex 28.6262 51.9758 1.6
      vertex 28.7007 12.1335 1.6
      vertex 28.7007 51.8665 1.6
    endloop
  endfacet
  facet normal 0 0 1
    outer loop
      vertex 28.6262 51.9758 1.6
      vertex 28.6262 12.0242 1.6
      vertex 28.7007 12.1335 1.6
    endloop
  endfacet
  facet normal 0 0 1
    outer loop
      vertex 28.174 52.6391 1.6
      vertex 28.6262 12.0242 1.6
      vertex 28.6262 51.9758 1.6
    endloop
  endfacet
  facet normal 0 0 1
    outer loop
      vertex 28.174 52.6391 1.6
      vertex 28.174 11.3609 1.6
      vertex 28.6262 12.0242 1.6
    endloop
  endfacet
  facet normal 0 0 1
    outer loop
      vertex 18.15 62.45 1.6
      vertex 28.174 52.6391 1.6
      vertex 27.9374 53.4062 1.6
    endloop
  endfacet
  facet normal 0 0 1
    outer loop
      vertex 28.174 52.6391 1.6
      vertex 18.15 62.45 1.6
      vertex 28.174 11.3609 1.6
    endloop
  endfacet
  facet normal 0 0 1
    outer loop
      vertex 18.15 62.45 1.6
      vertex 27.9374 53.4062 1.6
      vertex 27.8984 53.5325 1.6
    endloop
  endfacet
  facet normal 0 0 1
    outer loop
      vertex 18.15 1.55 1.6
      vertex 28.174 11.3609 1.6
      vertex 18.15 62.45 1.6
    endloop
  endfacet
  facet normal 0 0 1
    outer loop
      vertex 33.9973 54.9245 1.6
      vertex 60 57 1.6
      vertex 60 62.45 1.6
    endloop
  endfacet
  facet normal 0 0 1
    outer loop
      vertex 34.017 53.2062 1.6
      vertex 60 57 1.6
      vertex 34.1366 54 1.6
    endloop
  endfacet
  facet normal 0 0 1
    outer loop
      vertex 33.5916 52.2331 1.6
      vertex 60 57 1.6
      vertex 33.9399 52.9563 1.6
    endloop
  endfacet
  facet normal 0 0 1
    outer loop
      vertex 60 57 1.6
      vertex 34.017 54.7938 1.6
      vertex 34.1366 54 1.6
    endloop
  endfacet
  facet normal 0 0 1
    outer loop
      vertex 60 57 1.6
      vertex 33.9973 54.9245 1.6
      vertex 34.017 54.7938 1.6
    endloop
  endfacet
  facet normal 0 0 1
    outer loop
      vertex 60 62.45 1.6
      vertex 33.9399 55.0437 1.6
      vertex 33.9973 54.9245 1.6
    endloop
  endfacet
  facet normal 0 0 1
    outer loop
      vertex 60 62.45 1.6
      vertex 33.5916 55.7669 1.6
      vertex 33.9399 55.0437 1.6
    endloop
  endfacet
  facet normal 0 0 1
    outer loop
      vertex 60 62.45 1.6
      vertex 33.5017 55.8639 1.6
      vertex 33.5916 55.7669 1.6
    endloop
  endfacet
  facet normal 0 0 1
    outer loop
      vertex 60 62.45 1.6
      vertex 32.9557 56.4523 1.6
      vertex 33.5017 55.8639 1.6
    endloop
  endfacet
  facet normal 0 0 1
    outer loop
      vertex 60 62.45 1.6
      vertex 32.2604 56.8537 1.6
      vertex 32.9557 56.4523 1.6
    endloop
  endfacet
  facet normal 0 0 1
    outer loop
      vertex 60 62.45 1.6
      vertex 32.1459 56.9198 1.6
      vertex 32.2604 56.8537 1.6
    endloop
  endfacet
  facet normal 0 0 1
    outer loop
      vertex 60 62.45 1.6
      vertex 32.017 56.9492 1.6
      vertex 32.1459 56.9198 1.6
    endloop
  endfacet
  facet normal 0 0 1
    outer loop
      vertex 60 62.45 1.6
      vertex 31.2344 57.1279 1.6
      vertex 32.017 56.9492 1.6
    endloop
  endfacet
  facet normal -0 0 1
    outer loop
      vertex 18.15 62.45 1.6
      vertex 31.2344 57.1279 1.6
      vertex 60 62.45 1.6
    endloop
  endfacet
  facet normal 0 0 1
    outer loop
      vertex 31.2344 57.1279 1.6
      vertex 18.15 62.45 1.6
      vertex 30.4339 57.0679 1.6
    endloop
  endfacet
  facet normal 0 0 1
    outer loop
      vertex 18.15 62.45 1.6
      vertex 28.6262 56.0242 1.6
      vertex 28.7007 56.1335 1.6
    endloop
  endfacet
  facet normal 0 0 1
    outer loop
      vertex 18.15 62.45 1.6
      vertex 27.8984 53.5325 1.6
      vertex 27.8984 54.4675 1.6
    endloop
  endfacet
  facet normal 0 0 1
    outer loop
      vertex 28.174 11.3609 1.6
      vertex 18.15 1.55 1.6
      vertex 27.9374 10.5938 1.6
    endloop
  endfacet
  facet normal 0 0 1
    outer loop
      vertex 27.9374 10.5938 1.6
      vertex 18.15 1.55 1.6
      vertex 27.8984 10.4675 1.6
    endloop
  endfacet
  facet normal 0 0 1
    outer loop
      vertex 27.9374 54.5938 1.6
      vertex 18.15 62.45 1.6
      vertex 27.8984 54.4675 1.6
    endloop
  endfacet
  facet normal 0 0 1
    outer loop
      vertex 28.174 55.3609 1.6
      vertex 18.15 62.45 1.6
      vertex 27.9374 54.5938 1.6
    endloop
  endfacet
  facet normal 0 0 1
    outer loop
      vertex 28.6262 56.0242 1.6
      vertex 18.15 62.45 1.6
      vertex 28.174 55.3609 1.6
    endloop
  endfacet
  facet normal 0 0 1
    outer loop
      vertex 29.3283 56.634 1.6
      vertex 18.15 62.45 1.6
      vertex 28.7007 56.1335 1.6
    endloop
  endfacet
  facet normal 0 0 1
    outer loop
      vertex 29.4317 56.7164 1.6
      vertex 18.15 62.45 1.6
      vertex 29.3283 56.634 1.6
    endloop
  endfacet
  facet normal 0 0 1
    outer loop
      vertex 30.179 57.0097 1.6
      vertex 18.15 62.45 1.6
      vertex 29.4317 56.7164 1.6
    endloop
  endfacet
  facet normal 0 0 1
    outer loop
      vertex 30.302 57.058 1.6
      vertex 18.15 62.45 1.6
      vertex 30.179 57.0097 1.6
    endloop
  endfacet
  facet normal 0 0 1
    outer loop
      vertex 30.4339 57.0679 1.6
      vertex 18.15 62.45 1.6
      vertex 30.302 57.058 1.6
    endloop
  endfacet
  facet normal 0 0 1
    outer loop
      vertex 63.2322 10.7678 1.6
      vertex 60 7 1.6
      vertex 62.6903 9.95671 1.6
    endloop
  endfacet
  facet normal 0 0 1
    outer loop
      vertex 62.6903 9.95671 1.6
      vertex 60 7 1.6
      vertex 61.15 7 1.6
    endloop
  endfacet
  facet normal -0 0 1
    outer loop
      vertex 34.017 9.2062 1.6
      vertex 60 7 1.6
      vertex 34.1366 10 1.6
    endloop
  endfacet
  facet normal -0 0 1
    outer loop
      vertex 33.9973 9.07546 1.6
      vertex 60 7 1.6
      vertex 34.017 9.2062 1.6
    endloop
  endfacet
  facet normal 0 0 1
    outer loop
      vertex 60 7 1.6
      vertex 33.9973 9.07546 1.6
      vertex 60 1.55 1.6
    endloop
  endfacet
  facet normal -0 0 1
    outer loop
      vertex 33.9399 8.95634 1.6
      vertex 60 1.55 1.6
      vertex 33.9973 9.07546 1.6
    endloop
  endfacet
  facet normal -0 0 1
    outer loop
      vertex 33.5916 8.23307 1.6
      vertex 60 1.55 1.6
      vertex 33.9399 8.95634 1.6
    endloop
  endfacet
  facet normal -0 0 1
    outer loop
      vertex 33.5017 8.13615 1.6
      vertex 60 1.55 1.6
      vertex 33.5916 8.23307 1.6
    endloop
  endfacet
  facet normal -0 0 1
    outer loop
      vertex 32.9557 7.54768 1.6
      vertex 60 1.55 1.6
      vertex 33.5017 8.13615 1.6
    endloop
  endfacet
  facet normal -0 0 1
    outer loop
      vertex 32.2604 7.1463 1.6
      vertex 60 1.55 1.6
      vertex 32.9557 7.54768 1.6
    endloop
  endfacet
  facet normal -0 0 1
    outer loop
      vertex 32.1459 7.08019 1.6
      vertex 60 1.55 1.6
      vertex 32.2604 7.1463 1.6
    endloop
  endfacet
  facet normal -0 0 1
    outer loop
      vertex 32.017 7.05077 1.6
      vertex 60 1.55 1.6
      vertex 32.1459 7.08019 1.6
    endloop
  endfacet
  facet normal -0 0 1
    outer loop
      vertex 31.2344 6.87214 1.6
      vertex 60 1.55 1.6
      vertex 32.017 7.05077 1.6
    endloop
  endfacet
  facet normal 0 0 1
    outer loop
      vertex 18.15 1.55 1.6
      vertex 31.2344 6.87214 1.6
      vertex 30.4339 6.93213 1.6
    endloop
  endfacet
  facet normal 0 0 1
    outer loop
      vertex 18.15 1.55 1.6
      vertex 30.4339 6.93213 1.6
      vertex 30.302 6.94201 1.6
    endloop
  endfacet
  facet normal 0 0 1
    outer loop
      vertex 31.2344 6.87214 1.6
      vertex 18.15 1.55 1.6
      vertex 60 1.55 1.6
    endloop
  endfacet
  facet normal 0 0 1
    outer loop
      vertex 30.179 6.99031 1.6
      vertex 18.15 1.55 1.6
      vertex 30.302 6.94201 1.6
    endloop
  endfacet
  facet normal 0 0 1
    outer loop
      vertex 29.4317 7.2836 1.6
      vertex 18.15 1.55 1.6
      vertex 30.179 6.99031 1.6
    endloop
  endfacet
  facet normal 0 0 1
    outer loop
      vertex 29.3283 7.36603 1.6
      vertex 18.15 1.55 1.6
      vertex 29.4317 7.2836 1.6
    endloop
  endfacet
  facet normal 0 0 1
    outer loop
      vertex 28.7007 7.86655 1.6
      vertex 18.15 1.55 1.6
      vertex 29.3283 7.36603 1.6
    endloop
  endfacet
  facet normal 0 0 1
    outer loop
      vertex 28.6262 7.97579 1.6
      vertex 18.15 1.55 1.6
      vertex 28.7007 7.86655 1.6
    endloop
  endfacet
  facet normal 0 0 1
    outer loop
      vertex 28.174 8.63907 1.6
      vertex 18.15 1.55 1.6
      vertex 28.6262 7.97579 1.6
    endloop
  endfacet
  facet normal 0 0 1
    outer loop
      vertex 27.9374 9.40616 1.6
      vertex 18.15 1.55 1.6
      vertex 28.174 8.63907 1.6
    endloop
  endfacet
  facet normal 0 0 1
    outer loop
      vertex 27.8984 9.53251 1.6
      vertex 18.15 1.55 1.6
      vertex 27.9374 9.40616 1.6
    endloop
  endfacet
  facet normal 0 0 1
    outer loop
      vertex 27.8984 10.4675 1.6
      vertex 18.15 1.55 1.6
      vertex 27.8984 9.53251 1.6
    endloop
  endfacet
  facet normal -0 0 1
    outer loop
      vertex 66.7678 10.7678 1.6
      vertex 78.45 1.55 1.6
      vertex 78.45 62.45 1.6
    endloop
  endfacet
  facet normal 0 0 1
    outer loop
      vertex 78.45 1.55 1.6
      vertex 67.3097 9.95671 1.6
      vertex 67.5 9 1.6
    endloop
  endfacet
  facet normal 0 0 1
    outer loop
      vertex 78.45 1.55 1.6
      vertex 66.7678 10.7678 1.6
      vertex 67.3097 9.95671 1.6
    endloop
  endfacet
  facet normal 0 0 1
    outer loop
      vertex 78.45 62.45 1.6
      vertex 65.9567 11.3097 1.6
      vertex 66.7678 10.7678 1.6
    endloop
  endfacet
  facet normal -0 0 1
    outer loop
      vertex 61.15 57 1.6
      vertex 65.9567 11.3097 1.6
      vertex 78.45 62.45 1.6
    endloop
  endfacet
  facet normal 0 0 1
    outer loop
      vertex 65.9567 11.3097 1.6
      vertex 61.15 57 1.6
      vertex 65 11.5 1.6
    endloop
  endfacet
  facet normal -0 0 1
    outer loop
      vertex 60 57 1.6
      vertex 65 11.5 1.6
      vertex 61.15 57 1.6
    endloop
  endfacet
  facet normal 0 0 1
    outer loop
      vertex 65 11.5 1.6
      vertex 60 57 1.6
      vertex 64.0433 11.3097 1.6
    endloop
  endfacet
  facet normal 0 0 1
    outer loop
      vertex 33.9973 53.0755 1.6
      vertex 60 57 1.6
      vertex 34.017 53.2062 1.6
    endloop
  endfacet
  facet normal 0 0 1
    outer loop
      vertex 61.15 57 1.6
      vertex 78.45 62.45 1.6
      vertex 61.15 62.45 1.6
    endloop
  endfacet
  facet normal -0 0 1
    outer loop
      vertex 67.3097 8.04329 1.6
      vertex 78.45 1.55 1.6
      vertex 67.5 9 1.6
    endloop
  endfacet
  facet normal -0 0 1
    outer loop
      vertex 66.7678 7.23223 1.6
      vertex 78.45 1.55 1.6
      vertex 67.3097 8.04329 1.6
    endloop
  endfacet
  facet normal -0 0 1
    outer loop
      vertex 65.9567 6.6903 1.6
      vertex 78.45 1.55 1.6
      vertex 66.7678 7.23223 1.6
    endloop
  endfacet
  facet normal 0 0 1
    outer loop
      vertex 61.15 1.55 1.6
      vertex 65.9567 6.6903 1.6
      vertex 65 6.5 1.6
    endloop
  endfacet
  facet normal 0 0 1
    outer loop
      vertex 61.15 1.55 1.6
      vertex 65 6.5 1.6
      vertex 64.0433 6.6903 1.6
    endloop
  endfacet
  facet normal 0 0 1
    outer loop
      vertex 33.9399 52.9563 1.6
      vertex 60 57 1.6
      vertex 33.9973 53.0755 1.6
    endloop
  endfacet
  facet normal 0 0 1
    outer loop
      vertex 62.6903 9.95671 1.6
      vertex 61.15 7 1.6
      vertex 62.5 9 1.6
    endloop
  endfacet
  facet normal 0 0 1
    outer loop
      vertex 61.15 7 1.6
      vertex 62.6903 8.04329 1.6
      vertex 62.5 9 1.6
    endloop
  endfacet
  facet normal 0 0 1
    outer loop
      vertex 61.15 7 1.6
      vertex 63.2322 7.23223 1.6
      vertex 62.6903 8.04329 1.6
    endloop
  endfacet
  facet normal -0 0 1
    outer loop
      vertex 61.15 7 1.6
      vertex 64.0433 6.6903 1.6
      vertex 63.2322 7.23223 1.6
    endloop
  endfacet
  facet normal 0 0 1
    outer loop
      vertex 61.15 1.55 1.6
      vertex 64.0433 6.6903 1.6
      vertex 61.15 7 1.6
    endloop
  endfacet
  facet normal 0 0 1
    outer loop
      vertex 65.9567 6.6903 1.6
      vertex 61.15 1.55 1.6
      vertex 78.45 1.55 1.6
    endloop
  endfacet
  facet normal 0 0 1
    outer loop
      vertex 31.8839 54.8839 1.6
      vertex 31.8839 53.1161 1.6
      vertex 32.25 54 1.6
    endloop
  endfacet
  facet normal 0 0 1
    outer loop
      vertex 31 55.25 1.6
      vertex 31.8839 53.1161 1.6
      vertex 31.8839 54.8839 1.6
    endloop
  endfacet
  facet normal 0 0 1
    outer loop
      vertex 31 55.25 1.6
      vertex 31 52.75 1.6
      vertex 31.8839 53.1161 1.6
    endloop
  endfacet
  facet normal -0 0 1
    outer loop
      vertex 30.1161 54.8839 1.6
      vertex 31 52.75 1.6
      vertex 31 55.25 1.6
    endloop
  endfacet
  facet normal 0 0 1
    outer loop
      vertex 30.1161 54.8839 1.6
      vertex 30.1161 53.1161 1.6
      vertex 31 52.75 1.6
    endloop
  endfacet
  facet normal 0 -0 1
    outer loop
      vertex 30.1161 53.1161 1.6
      vertex 30.1161 54.8839 1.6
      vertex 29.75 54 1.6
    endloop
  endfacet
  facet normal 0 0 1
    outer loop
      vertex 31.8839 10.8839 1.6
      vertex 31.8839 9.11612 1.6
      vertex 32.25 10 1.6
    endloop
  endfacet
  facet normal 0 0 1
    outer loop
      vertex 31 11.25 1.6
      vertex 31.8839 9.11612 1.6
      vertex 31.8839 10.8839 1.6
    endloop
  endfacet
  facet normal 0 0 1
    outer loop
      vertex 31 11.25 1.6
      vertex 31 8.75 1.6
      vertex 31.8839 9.11612 1.6
    endloop
  endfacet
  facet normal -0 0 1
    outer loop
      vertex 30.1161 10.8839 1.6
      vertex 31 8.75 1.6
      vertex 31 11.25 1.6
    endloop
  endfacet
  facet normal 0 0 1
    outer loop
      vertex 30.1161 10.8839 1.6
      vertex 30.1161 9.11612 1.6
      vertex 31 8.75 1.6
    endloop
  endfacet
  facet normal 0 -0 1
    outer loop
      vertex 30.1161 9.11612 1.6
      vertex 30.1161 10.8839 1.6
      vertex 29.75 10 1.6
    endloop
  endfacet
  facet normal 0 1 -0
    outer loop
      vertex 17 1.55 1.6
      vertex 0 1.55 8.6
      vertex 17 1.55 8.6
    endloop
  endfacet
  facet normal 0 1 0
    outer loop
      vertex 0 1.55 8.6
      vertex 17 1.55 1.6
      vertex 0 1.55 1.6
    endloop
  endfacet
  facet normal 0 1 0
    outer loop
      vertex 60 1.55 7.6
      vertex 78.45 1.55 8.6
      vertex 61.15 1.55 7.6
    endloop
  endfacet
  facet normal 0 1 -0
    outer loop
      vertex 78.45 1.55 1.6
      vertex 61.15 1.55 7.6
      vertex 78.45 1.55 8.6
    endloop
  endfacet
  facet normal 0 1 0
    outer loop
      vertex 61.15 1.55 7.6
      vertex 78.45 1.55 1.6
      vertex 61.15 1.55 1.6
    endloop
  endfacet
  facet normal 0 1 0
    outer loop
      vertex 78.45 1.55 8.6
      vertex 60 1.55 7.6
      vertex 18.15 1.55 8.6
    endloop
  endfacet
  facet normal 0 1 0
    outer loop
      vertex 18.15 1.55 1.6
      vertex 60 1.55 7.6
      vertex 60 1.55 1.6
    endloop
  endfacet
  facet normal 0 1 0
    outer loop
      vertex 60 1.55 7.6
      vertex 18.15 1.55 1.6
      vertex 18.15 1.55 8.6
    endloop
  endfacet
  facet normal -1 0 0
    outer loop
      vertex 10 3.5 0
      vertex 10 60.5 1.6
      vertex 10 60.5 0
    endloop
  endfacet
  facet normal -1 -0 0
    outer loop
      vertex 10 60.5 1.6
      vertex 10 3.5 0
      vertex 10 3.5 1.6
    endloop
  endfacet
  facet normal 0 1 -0
    outer loop
      vertex 10 3.5 0
      vertex 0 3.5 1.6
      vertex 10 3.5 1.6
    endloop
  endfacet
  facet normal 0 1 0
    outer loop
      vertex 0 3.5 1.6
      vertex 10 3.5 0
      vertex 0 3.5 0
    endloop
  endfacet
  facet normal 0 -1 0
    outer loop
      vertex 0 60.5 0
      vertex 10 60.5 1.6
      vertex 0 60.5 1.6
    endloop
  endfacet
  facet normal 0 -1 -0
    outer loop
      vertex 10 60.5 1.6
      vertex 0 60.5 0
      vertex 10 60.5 0
    endloop
  endfacet
  facet normal -0.980786 -0.195089 0
    outer loop
      vertex 67.5 9 0
      vertex 67.3097 9.95671 1.6
      vertex 67.3097 9.95671 0
    endloop
  endfacet
  facet normal -0.980786 -0.195089 0
    outer loop
      vertex 67.3097 9.95671 1.6
      vertex 67.5 9 0
      vertex 67.5 9 1.6
    endloop
  endfacet
  facet normal -0.195091 -0.980785 0
    outer loop
      vertex 65 11.5 0
      vertex 65.9567 11.3097 1.6
      vertex 65 11.5 1.6
    endloop
  endfacet
  facet normal -0.195091 -0.980785 -0
    outer loop
      vertex 65.9567 11.3097 1.6
      vertex 65 11.5 0
      vertex 65.9567 11.3097 0
    endloop
  endfacet
  facet normal 0.980786 0.195089 0
    outer loop
      vertex 62.6903 8.04329 1.6
      vertex 62.5 9 0
      vertex 62.5 9 1.6
    endloop
  endfacet
  facet normal 0.980786 0.195089 0
    outer loop
      vertex 62.5 9 0
      vertex 62.6903 8.04329 1.6
      vertex 62.6903 8.04329 0
    endloop
  endfacet
  facet normal -0.831485 0.555547 0
    outer loop
      vertex 66.7678 7.23223 0
      vertex 67.3097 8.04329 1.6
      vertex 67.3097 8.04329 0
    endloop
  endfacet
  facet normal -0.831485 0.555547 0
    outer loop
      vertex 67.3097 8.04329 1.6
      vertex 66.7678 7.23223 0
      vertex 66.7678 7.23223 1.6
    endloop
  endfacet
  facet normal -0.555549 0.831484 0
    outer loop
      vertex 66.7678 7.23223 0
      vertex 65.9567 6.6903 1.6
      vertex 66.7678 7.23223 1.6
    endloop
  endfacet
  facet normal -0.555549 0.831484 0
    outer loop
      vertex 65.9567 6.6903 1.6
      vertex 66.7678 7.23223 0
      vertex 65.9567 6.6903 0
    endloop
  endfacet
  facet normal -0.195091 0.980785 0
    outer loop
      vertex 65.9567 6.6903 0
      vertex 65 6.5 1.6
      vertex 65.9567 6.6903 1.6
    endloop
  endfacet
  facet normal -0.195091 0.980785 0
    outer loop
      vertex 65 6.5 1.6
      vertex 65.9567 6.6903 0
      vertex 65 6.5 0
    endloop
  endfacet
  facet normal -0.555528 -0.831498 0
    outer loop
      vertex 65.9567 11.3097 0
      vertex 66.7678 10.7678 1.6
      vertex 65.9567 11.3097 1.6
    endloop
  endfacet
  facet normal -0.555528 -0.831498 -0
    outer loop
      vertex 66.7678 10.7678 1.6
      vertex 65.9567 11.3097 0
      vertex 66.7678 10.7678 0
    endloop
  endfacet
  facet normal -0.831495 -0.555533 0
    outer loop
      vertex 67.3097 9.95671 0
      vertex 66.7678 10.7678 1.6
      vertex 66.7678 10.7678 0
    endloop
  endfacet
  facet normal -0.831495 -0.555533 0
    outer loop
      vertex 66.7678 10.7678 1.6
      vertex 67.3097 9.95671 0
      vertex 67.3097 9.95671 1.6
    endloop
  endfacet
  facet normal 0.195091 -0.980785 0
    outer loop
      vertex 64.0433 11.3097 0
      vertex 65 11.5 1.6
      vertex 64.0433 11.3097 1.6
    endloop
  endfacet
  facet normal 0.195091 -0.980785 0
    outer loop
      vertex 65 11.5 1.6
      vertex 64.0433 11.3097 0
      vertex 65 11.5 0
    endloop
  endfacet
  facet normal 0.555528 -0.831498 0
    outer loop
      vertex 63.2322 10.7678 0
      vertex 64.0433 11.3097 1.6
      vertex 63.2322 10.7678 1.6
    endloop
  endfacet
  facet normal 0.555528 -0.831498 0
    outer loop
      vertex 64.0433 11.3097 1.6
      vertex 63.2322 10.7678 0
      vertex 64.0433 11.3097 0
    endloop
  endfacet
  facet normal 0.980786 -0.195089 0
    outer loop
      vertex 62.5 9 1.6
      vertex 62.6903 9.95671 0
      vertex 62.6903 9.95671 1.6
    endloop
  endfacet
  facet normal 0.980786 -0.195089 0
    outer loop
      vertex 62.6903 9.95671 0
      vertex 62.5 9 1.6
      vertex 62.5 9 0
    endloop
  endfacet
  facet normal 0.831495 -0.555533 0
    outer loop
      vertex 62.6903 9.95671 1.6
      vertex 63.2322 10.7678 0
      vertex 63.2322 10.7678 1.6
    endloop
  endfacet
  facet normal 0.831495 -0.555533 0
    outer loop
      vertex 63.2322 10.7678 0
      vertex 62.6903 9.95671 1.6
      vertex 62.6903 9.95671 0
    endloop
  endfacet
  facet normal 0.831485 0.555547 0
    outer loop
      vertex 63.2322 7.23223 1.6
      vertex 62.6903 8.04329 0
      vertex 62.6903 8.04329 1.6
    endloop
  endfacet
  facet normal 0.831485 0.555547 0
    outer loop
      vertex 62.6903 8.04329 0
      vertex 63.2322 7.23223 1.6
      vertex 63.2322 7.23223 0
    endloop
  endfacet
  facet normal 0.195091 0.980785 -0
    outer loop
      vertex 65 6.5 0
      vertex 64.0433 6.6903 1.6
      vertex 65 6.5 1.6
    endloop
  endfacet
  facet normal 0.195091 0.980785 0
    outer loop
      vertex 64.0433 6.6903 1.6
      vertex 65 6.5 0
      vertex 64.0433 6.6903 0
    endloop
  endfacet
  facet normal 0.555549 0.831484 -0
    outer loop
      vertex 64.0433 6.6903 0
      vertex 63.2322 7.23223 1.6
      vertex 64.0433 6.6903 1.6
    endloop
  endfacet
  facet normal 0.555549 0.831484 0
    outer loop
      vertex 63.2322 7.23223 1.6
      vertex 64.0433 6.6903 0
      vertex 63.2322 7.23223 0
    endloop
  endfacet
  facet normal -0.980786 0.195089 0
    outer loop
      vertex 67.3097 8.04329 0
      vertex 67.5 9 1.6
      vertex 67.5 9 0
    endloop
  endfacet
  facet normal -0.980786 0.195089 0
    outer loop
      vertex 67.5 9 1.6
      vertex 67.3097 8.04329 0
      vertex 67.3097 8.04329 1.6
    endloop
  endfacet
  facet normal -1 0 0
    outer loop
      vertex 17 62.45 1.6
      vertex 17 59.5 7.6
      vertex 17 62.45 8.6
    endloop
  endfacet
  facet normal -1 0 0
    outer loop
      vertex 17 62.45 1.6
      vertex 17 4.5 7.6
      vertex 17 59.5 7.6
    endloop
  endfacet
  facet normal -1 0 0
    outer loop
      vertex 17 1.55 1.6
      vertex 17 4.5 7.6
      vertex 17 62.45 1.6
    endloop
  endfacet
  facet normal -1 0 0
    outer loop
      vertex 17 1.55 8.6
      vertex 17 4.5 7.6
      vertex 17 1.55 1.6
    endloop
  endfacet
  facet normal -1 0 0
    outer loop
      vertex 17 4.5 7.6
      vertex 17 1.55 8.6
      vertex 17 4.5 8.6
    endloop
  endfacet
  facet normal -1 -0 0
    outer loop
      vertex 17 62.45 8.6
      vertex 17 59.5 7.6
      vertex 17 59.5 8.6
    endloop
  endfacet
  facet normal 1 0 0
    outer loop
      vertex 18.15 4.5 8.6
      vertex 18.15 1.55 8.6
      vertex 18.15 4.5 7.6
    endloop
  endfacet
  facet normal 1 0 0
    outer loop
      vertex 18.15 59.5 7.6
      vertex 18.15 62.45 8.6
      vertex 18.15 59.5 8.6
    endloop
  endfacet
  facet normal 1 0 0
    outer loop
      vertex 18.15 62.45 8.6
      vertex 18.15 59.5 7.6
      vertex 18.15 62.45 1.6
    endloop
  endfacet
  facet normal 1 -0 0
    outer loop
      vertex 18.15 4.5 7.6
      vertex 18.15 62.45 1.6
      vertex 18.15 59.5 7.6
    endloop
  endfacet
  facet normal 1 0 0
    outer loop
      vertex 18.15 4.5 7.6
      vertex 18.15 1.55 1.6
      vertex 18.15 62.45 1.6
    endloop
  endfacet
  facet normal 1 0 0
    outer loop
      vertex 18.15 1.55 1.6
      vertex 18.15 4.5 7.6
      vertex 18.15 1.55 8.6
    endloop
  endfacet
  facet normal 0 -1 0
    outer loop
      vertex 17 59.5 7.6
      vertex 18.15 59.5 8.6
      vertex 17 59.5 8.6
    endloop
  endfacet
  facet normal 0 -1 -0
    outer loop
      vertex 18.15 59.5 8.6
      vertex 17 59.5 7.6
      vertex 18.15 59.5 7.6
    endloop
  endfacet
  facet normal -0 0 1
    outer loop
      vertex 17 59.5 7.6
      vertex 18.15 4.5 7.6
      vertex 18.15 59.5 7.6
    endloop
  endfacet
  facet normal 0 0 1
    outer loop
      vertex 18.15 4.5 7.6
      vertex 17 59.5 7.6
      vertex 17 4.5 7.6
    endloop
  endfacet
  facet normal 0 1 -0
    outer loop
      vertex 18.15 4.5 7.6
      vertex 17 4.5 8.6
      vertex 18.15 4.5 8.6
    endloop
  endfacet
  facet normal 0 1 0
    outer loop
      vertex 17 4.5 8.6
      vertex 18.15 4.5 7.6
      vertex 17 4.5 7.6
    endloop
  endfacet
  facet normal 0.988082 0.148872 0.039128
    outer loop
      vertex 34.017 10.7938 1.6
      vertex 33.8 10 10.1
      vertex 34.1366 10 1.6
    endloop
  endfacet
  facet normal 0.499569 -0.86539 0.0391319
    outer loop
      vertex 32.7458 7.81087 10.1
      vertex 32.2604 7.1463 1.6
      vertex 32.9557 7.54768 1.6
    endloop
  endfacet
  facet normal -0.365232 0.930094 0.0391309
    outer loop
      vertex 30.179 13.0097 1.6
      vertex 30.3769 12.7298 10.1
      vertex 30.302 13.058 1.6
    endloop
  endfacet
  facet normal -0.36505 0.930165 0.039129
    outer loop
      vertex 30.3769 12.7298 10.1
      vertex 30.179 13.0097 1.6
      vertex 29.6 12.4249 10.1
    endloop
  endfacet
  facet normal -0.0746862 0.996439 0.0391321
    outer loop
      vertex 31.2344 13.1279 1.6
      vertex 30.4339 13.0679 1.6
      vertex 31.2092 12.7922 10.1
    endloop
  endfacet
  facet normal 0.732463 0.679682 0.0391337
    outer loop
      vertex 32.9557 12.4523 1.6
      vertex 32.7458 12.1891 10.1
      vertex 33.5017 11.8639 1.6
    endloop
  endfacet
  facet normal 0.499609 0.865367 0.0391309
    outer loop
      vertex 32.2604 12.8537 1.6
      vertex 32.023 12.6064 10.1
      vertex 32.7458 12.1891 10.1
    endloop
  endfacet
  facet normal 0.49958 0.865384 0.0391305
    outer loop
      vertex 32.023 12.6064 10.1
      vertex 32.2604 12.8537 1.6
      vertex 32.1459 12.9198 1.6
    endloop
  endfacet
  facet normal -0.0747059 0.996437 0.0391338
    outer loop
      vertex 30.4339 13.0679 1.6
      vertex 30.3769 12.7298 10.1
      vertex 31.2092 12.7922 10.1
    endloop
  endfacet
  facet normal -0.074789 0.996431 0.039133
    outer loop
      vertex 30.3769 12.7298 10.1
      vertex 30.4339 13.0679 1.6
      vertex 30.302 13.058 1.6
    endloop
  endfacet
  facet normal 0.900299 0.433509 0.0391326
    outer loop
      vertex 33.6756 10.8253 10.1
      vertex 33.9399 11.0437 1.6
      vertex 33.3135 11.5773 10.1
    endloop
  endfacet
  facet normal 0.90029 0.433529 0.0391329
    outer loop
      vertex 33.9399 11.0437 1.6
      vertex 33.6756 10.8253 10.1
      vertex 33.9973 10.9245 1.6
    endloop
  endfacet
  facet normal -0.999234 0 0.0391347
    outer loop
      vertex 27.8984 10.4675 1.6
      vertex 28.2313 9.58268 10.1
      vertex 28.2313 10.4173 10.1
    endloop
  endfacet
  facet normal -0.999234 0 0.0391347
    outer loop
      vertex 28.2313 9.58268 10.1
      vertex 27.8984 10.4675 1.6
      vertex 27.8984 9.53251 1.6
    endloop
  endfacet
  facet normal 0.732503 -0.679638 0.0391325
    outer loop
      vertex 33.5017 8.13615 1.6
      vertex 32.7458 7.81087 10.1
      vertex 32.9557 7.54768 1.6
    endloop
  endfacet
  facet normal -0.954848 0.294508 0.0391298
    outer loop
      vertex 28.174 11.3609 1.6
      vertex 27.9374 10.5938 1.6
      vertex 28.4773 11.2149 10.1
    endloop
  endfacet
  facet normal -0.365068 0.930158 0.0391273
    outer loop
      vertex 30.179 13.0097 1.6
      vertex 29.4317 12.7164 1.6
      vertex 29.6 12.4249 10.1
    endloop
  endfacet
  facet normal 0.499587 0.865379 0.0391331
    outer loop
      vertex 32.9557 12.4523 1.6
      vertex 32.2604 12.8537 1.6
      vertex 32.7458 12.1891 10.1
    endloop
  endfacet
  facet normal 0.732471 0.679673 0.0391347
    outer loop
      vertex 33.3135 11.5773 10.1
      vertex 33.5017 11.8639 1.6
      vertex 32.7458 12.1891 10.1
    endloop
  endfacet
  facet normal 0.732878 0.679234 0.039129
    outer loop
      vertex 33.5017 11.8639 1.6
      vertex 33.3135 11.5773 10.1
      vertex 33.5916 11.7669 1.6
    endloop
  endfacet
  facet normal 0.900267 0.433577 0.0391259
    outer loop
      vertex 33.5916 11.7669 1.6
      vertex 33.3135 11.5773 10.1
      vertex 33.9399 11.0437 1.6
    endloop
  endfacet
  facet normal 0.988073 0.148929 0.0391338
    outer loop
      vertex 33.6756 10.8253 10.1
      vertex 34.017 10.7938 1.6
      vertex 33.9973 10.9245 1.6
    endloop
  endfacet
  facet normal 0.988072 0.148935 0.0391337
    outer loop
      vertex 34.017 10.7938 1.6
      vertex 33.6756 10.8253 10.1
      vertex 33.8 10 10.1
    endloop
  endfacet
  facet normal -0.954785 -0.29471 0.0391334
    outer loop
      vertex 27.9374 9.40616 1.6
      vertex 28.2313 9.58268 10.1
      vertex 27.8984 9.53251 1.6
    endloop
  endfacet
  facet normal -0.954845 -0.294517 0.0391314
    outer loop
      vertex 28.2313 9.58268 10.1
      vertex 27.9374 9.40616 1.6
      vertex 28.4773 8.78513 10.1
    endloop
  endfacet
  facet normal -0.365057 -0.930162 0.0391305
    outer loop
      vertex 29.6 7.57513 10.1
      vertex 29.4317 7.2836 1.6
      vertex 30.179 6.99031 1.6
    endloop
  endfacet
  facet normal -0.365081 -0.930153 0.0391282
    outer loop
      vertex 30.179 6.99031 1.6
      vertex 30.3769 7.2702 10.1
      vertex 29.6 7.57513 10.1
    endloop
  endfacet
  facet normal -0.365232 -0.930094 0.0391298
    outer loop
      vertex 30.3769 7.2702 10.1
      vertex 30.179 6.99031 1.6
      vertex 30.302 6.94201 1.6
    endloop
  endfacet
  facet normal -0.0746739 -0.99644 0.039131
    outer loop
      vertex 31.2092 7.20783 10.1
      vertex 30.4339 6.93213 1.6
      vertex 31.2344 6.87214 1.6
    endloop
  endfacet
  facet normal 0.732598 -0.679536 0.0391289
    outer loop
      vertex 33.3135 8.4227 10.1
      vertex 33.5017 8.13615 1.6
      vertex 33.5916 8.23307 1.6
    endloop
  endfacet
  facet normal 0.732488 -0.679655 0.0391305
    outer loop
      vertex 33.5017 8.13615 1.6
      vertex 33.3135 8.4227 10.1
      vertex 32.7458 7.81087 10.1
    endloop
  endfacet
  facet normal -0.954752 0.294817 0.0391337
    outer loop
      vertex 28.2313 10.4173 10.1
      vertex 27.9374 10.5938 1.6
      vertex 27.8984 10.4675 1.6
    endloop
  endfacet
  facet normal -0.95485 0.2945 0.0391305
    outer loop
      vertex 27.9374 10.5938 1.6
      vertex 28.2313 10.4173 10.1
      vertex 28.4773 11.2149 10.1
    endloop
  endfacet
  facet normal 0.222441 0.97416 0.0391331
    outer loop
      vertex 31.2344 13.1279 1.6
      vertex 31.2092 12.7922 10.1
      vertex 32.017 12.9492 1.6
    endloop
  endfacet
  facet normal 0.222203 0.974215 0.0391327
    outer loop
      vertex 32.017 12.9492 1.6
      vertex 32.023 12.6064 10.1
      vertex 32.1459 12.9198 1.6
    endloop
  endfacet
  facet normal 0.222414 0.974167 0.0391306
    outer loop
      vertex 32.023 12.6064 10.1
      vertex 32.017 12.9492 1.6
      vertex 31.2092 12.7922 10.1
    endloop
  endfacet
  facet normal -0.623032 -0.781217 0.0391341
    outer loop
      vertex 28.9475 8.09552 10.1
      vertex 28.7007 7.86655 1.6
      vertex 29.3283 7.36603 1.6
    endloop
  endfacet
  facet normal -0.954846 -0.294511 0.0391319
    outer loop
      vertex 28.4773 8.78513 10.1
      vertex 27.9374 9.40616 1.6
      vertex 28.174 8.63907 1.6
    endloop
  endfacet
  facet normal -0.825588 -0.562915 0.0391364
    outer loop
      vertex 28.6262 7.97579 1.6
      vertex 28.9475 8.09552 10.1
      vertex 28.4773 8.78513 10.1
    endloop
  endfacet
  facet normal -0.82553 -0.562999 0.0391354
    outer loop
      vertex 28.9475 8.09552 10.1
      vertex 28.6262 7.97579 1.6
      vertex 28.7007 7.86655 1.6
    endloop
  endfacet
  facet normal -0.62304 -0.78121 0.0391331
    outer loop
      vertex 29.3283 7.36603 1.6
      vertex 29.6 7.57513 10.1
      vertex 28.9475 8.09552 10.1
    endloop
  endfacet
  facet normal -0.622879 -0.781339 0.0391311
    outer loop
      vertex 29.6 7.57513 10.1
      vertex 29.3283 7.36603 1.6
      vertex 29.4317 7.2836 1.6
    endloop
  endfacet
  facet normal 0 0 1
    outer loop
      vertex 32.25 10 10.1
      vertex 33.8 10 10.1
      vertex 33.6756 10.8253 10.1
    endloop
  endfacet
  facet normal -0 0 1
    outer loop
      vertex 31.8839 10.8839 10.1
      vertex 33.6756 10.8253 10.1
      vertex 33.3135 11.5773 10.1
    endloop
  endfacet
  facet normal 0 0 1
    outer loop
      vertex 33.8 10 10.1
      vertex 32.25 10 10.1
      vertex 33.6756 9.17469 10.1
    endloop
  endfacet
  facet normal 0 0 1
    outer loop
      vertex 31.8839 10.8839 10.1
      vertex 33.3135 11.5773 10.1
      vertex 32.7458 12.1891 10.1
    endloop
  endfacet
  facet normal 0 0 1
    outer loop
      vertex 31.8839 9.11612 10.1
      vertex 33.6756 9.17469 10.1
      vertex 32.25 10 10.1
    endloop
  endfacet
  facet normal 0 0 1
    outer loop
      vertex 33.6756 9.17469 10.1
      vertex 31.8839 9.11612 10.1
      vertex 33.3135 8.4227 10.1
    endloop
  endfacet
  facet normal 0 0 1
    outer loop
      vertex 31.8839 10.8839 10.1
      vertex 32.7458 12.1891 10.1
      vertex 32.023 12.6064 10.1
    endloop
  endfacet
  facet normal 0 0 1
    outer loop
      vertex 33.6756 10.8253 10.1
      vertex 31.8839 10.8839 10.1
      vertex 32.25 10 10.1
    endloop
  endfacet
  facet normal 0 0 1
    outer loop
      vertex 31 11.25 10.1
      vertex 32.023 12.6064 10.1
      vertex 31.2092 12.7922 10.1
    endloop
  endfacet
  facet normal 0 0 1
    outer loop
      vertex 32.023 12.6064 10.1
      vertex 31 11.25 10.1
      vertex 31.8839 10.8839 10.1
    endloop
  endfacet
  facet normal -0 0 1
    outer loop
      vertex 30.3769 12.7298 10.1
      vertex 31 11.25 10.1
      vertex 31.2092 12.7922 10.1
    endloop
  endfacet
  facet normal -0 0 1
    outer loop
      vertex 29.6 12.4249 10.1
      vertex 31 11.25 10.1
      vertex 30.3769 12.7298 10.1
    endloop
  endfacet
  facet normal 0 0 1
    outer loop
      vertex 31 11.25 10.1
      vertex 29.6 12.4249 10.1
      vertex 30.1161 10.8839 10.1
    endloop
  endfacet
  facet normal -0 0 1
    outer loop
      vertex 28.9475 11.9045 10.1
      vertex 30.1161 10.8839 10.1
      vertex 29.6 12.4249 10.1
    endloop
  endfacet
  facet normal 0 0 1
    outer loop
      vertex 33.3135 8.4227 10.1
      vertex 31.8839 9.11612 10.1
      vertex 32.7458 7.81087 10.1
    endloop
  endfacet
  facet normal 0 0 1
    outer loop
      vertex 32.7458 7.81087 10.1
      vertex 31.8839 9.11612 10.1
      vertex 32.023 7.39355 10.1
    endloop
  endfacet
  facet normal -0 0 1
    outer loop
      vertex 31 8.75 10.1
      vertex 32.023 7.39355 10.1
      vertex 31.8839 9.11612 10.1
    endloop
  endfacet
  facet normal 0 0 1
    outer loop
      vertex 32.023 7.39355 10.1
      vertex 31 8.75 10.1
      vertex 31.2092 7.20783 10.1
    endloop
  endfacet
  facet normal 0 0 1
    outer loop
      vertex 31 8.75 10.1
      vertex 30.3769 7.2702 10.1
      vertex 31.2092 7.20783 10.1
    endloop
  endfacet
  facet normal 0 0 1
    outer loop
      vertex 29.6 7.57513 10.1
      vertex 31 8.75 10.1
      vertex 30.1161 9.11612 10.1
    endloop
  endfacet
  facet normal 0 0 1
    outer loop
      vertex 28.4773 8.78513 10.1
      vertex 30.1161 9.11612 10.1
      vertex 29.75 10 10.1
    endloop
  endfacet
  facet normal 0 0 1
    outer loop
      vertex 31 8.75 10.1
      vertex 29.6 7.57513 10.1
      vertex 30.3769 7.2702 10.1
    endloop
  endfacet
  facet normal -0 0 1
    outer loop
      vertex 28.4773 11.2149 10.1
      vertex 30.1161 10.8839 10.1
      vertex 28.9475 11.9045 10.1
    endloop
  endfacet
  facet normal 0 0 1
    outer loop
      vertex 30.1161 10.8839 10.1
      vertex 28.4773 11.2149 10.1
      vertex 29.75 10 10.1
    endloop
  endfacet
  facet normal 0 0 1
    outer loop
      vertex 30.1161 9.11612 10.1
      vertex 28.9475 8.09552 10.1
      vertex 29.6 7.57513 10.1
    endloop
  endfacet
  facet normal -0 0 1
    outer loop
      vertex 28.2313 10.4173 10.1
      vertex 29.75 10 10.1
      vertex 28.4773 11.2149 10.1
    endloop
  endfacet
  facet normal 0 0 1
    outer loop
      vertex 30.1161 9.11612 10.1
      vertex 28.4773 8.78513 10.1
      vertex 28.9475 8.09552 10.1
    endloop
  endfacet
  facet normal 0 0 1
    outer loop
      vertex 28.2313 9.58268 10.1
      vertex 29.75 10 10.1
      vertex 28.2313 10.4173 10.1
    endloop
  endfacet
  facet normal 0 0 1
    outer loop
      vertex 29.75 10 10.1
      vertex 28.2313 9.58268 10.1
      vertex 28.4773 8.78513 10.1
    endloop
  endfacet
  facet normal 0.222358 -0.974179 0.0391324
    outer loop
      vertex 32.017 7.05077 1.6
      vertex 31.2092 7.20783 10.1
      vertex 31.2344 6.87214 1.6
    endloop
  endfacet
  facet normal -0.0746388 -0.996443 0.0391309
    outer loop
      vertex 30.4339 6.93213 1.6
      vertex 30.3769 7.2702 10.1
      vertex 30.302 6.94201 1.6
    endloop
  endfacet
  facet normal -0.0746702 -0.99644 0.0391306
    outer loop
      vertex 30.3769 7.2702 10.1
      vertex 30.4339 6.93213 1.6
      vertex 31.2092 7.20783 10.1
    endloop
  endfacet
  facet normal 0.900283 -0.433543 0.0391272
    outer loop
      vertex 33.9399 8.95634 1.6
      vertex 33.3135 8.4227 10.1
      vertex 33.5916 8.23307 1.6
    endloop
  endfacet
  facet normal -0.825674 0.562788 0.0391359
    outer loop
      vertex 28.6262 12.0242 1.6
      vertex 28.9475 11.9045 10.1
      vertex 28.7007 12.1335 1.6
    endloop
  endfacet
  facet normal -0.825584 0.56292 0.0391343
    outer loop
      vertex 28.9475 11.9045 10.1
      vertex 28.6262 12.0242 1.6
      vertex 28.4773 11.2149 10.1
    endloop
  endfacet
  facet normal -0.825616 -0.562874 0.0391321
    outer loop
      vertex 28.4773 8.78513 10.1
      vertex 28.174 8.63907 1.6
      vertex 28.6262 7.97579 1.6
    endloop
  endfacet
  facet normal 0.222323 -0.974188 0.0391292
    outer loop
      vertex 32.017 7.05077 1.6
      vertex 32.023 7.39355 10.1
      vertex 31.2092 7.20783 10.1
    endloop
  endfacet
  facet normal 0.222346 -0.974182 0.039129
    outer loop
      vertex 32.023 7.39355 10.1
      vertex 32.017 7.05077 1.6
      vertex 32.1459 7.08019 1.6
    endloop
  endfacet
  facet normal 0.499636 -0.865351 0.0391261
    outer loop
      vertex 32.2604 7.1463 1.6
      vertex 32.023 7.39355 10.1
      vertex 32.1459 7.08019 1.6
    endloop
  endfacet
  facet normal 0.499627 -0.865356 0.039126
    outer loop
      vertex 32.023 7.39355 10.1
      vertex 32.2604 7.1463 1.6
      vertex 32.7458 7.81087 10.1
    endloop
  endfacet
  facet normal 0.988082 -0.148872 0.039128
    outer loop
      vertex 34.1366 10 1.6
      vertex 33.8 10 10.1
      vertex 34.017 9.2062 1.6
    endloop
  endfacet
  facet normal -0.623016 0.781229 0.0391367
    outer loop
      vertex 29.3283 12.634 1.6
      vertex 28.7007 12.1335 1.6
      vertex 28.9475 11.9045 10.1
    endloop
  endfacet
  facet normal -0.825624 0.562863 0.0391282
    outer loop
      vertex 28.6262 12.0242 1.6
      vertex 28.174 11.3609 1.6
      vertex 28.4773 11.2149 10.1
    endloop
  endfacet
  facet normal 0.900176 -0.433765 0.0391328
    outer loop
      vertex 33.6756 9.17469 10.1
      vertex 33.9399 8.95634 1.6
      vertex 33.9973 9.07546 1.6
    endloop
  endfacet
  facet normal 0.900297 -0.433513 0.0391301
    outer loop
      vertex 33.9399 8.95634 1.6
      vertex 33.6756 9.17469 10.1
      vertex 33.3135 8.4227 10.1
    endloop
  endfacet
  facet normal 0.988073 -0.148933 0.0391335
    outer loop
      vertex 33.6756 9.17469 10.1
      vertex 34.017 9.2062 1.6
      vertex 33.8 10 10.1
    endloop
  endfacet
  facet normal 0.98808 -0.148885 0.039134
    outer loop
      vertex 34.017 9.2062 1.6
      vertex 33.6756 9.17469 10.1
      vertex 33.9973 9.07546 1.6
    endloop
  endfacet
  facet normal -0.622741 0.781449 0.0391294
    outer loop
      vertex 29.3283 12.634 1.6
      vertex 29.6 12.4249 10.1
      vertex 29.4317 12.7164 1.6
    endloop
  endfacet
  facet normal -0.623048 0.781204 0.0391332
    outer loop
      vertex 29.6 12.4249 10.1
      vertex 29.3283 12.634 1.6
      vertex 28.9475 11.9045 10.1
    endloop
  endfacet
  facet normal -0.923888 -0.382663 0
    outer loop
      vertex 32.25 10 1.6
      vertex 31.8839 10.8839 10.1
      vertex 31.8839 10.8839 1.6
    endloop
  endfacet
  facet normal -0.923888 -0.382663 0
    outer loop
      vertex 31.8839 10.8839 10.1
      vertex 32.25 10 1.6
      vertex 32.25 10 10.1
    endloop
  endfacet
  facet normal 0.923888 -0.382663 0
    outer loop
      vertex 29.75 10 10.1
      vertex 30.1161 10.8839 1.6
      vertex 30.1161 10.8839 10.1
    endloop
  endfacet
  facet normal 0.923888 -0.382663 0
    outer loop
      vertex 30.1161 10.8839 1.6
      vertex 29.75 10 10.1
      vertex 29.75 10 1.6
    endloop
  endfacet
  facet normal -0.382663 -0.923888 0
    outer loop
      vertex 31 11.25 1.6
      vertex 31.8839 10.8839 10.1
      vertex 31 11.25 10.1
    endloop
  endfacet
  facet normal -0.382663 -0.923888 -0
    outer loop
      vertex 31.8839 10.8839 10.1
      vertex 31 11.25 1.6
      vertex 31.8839 10.8839 1.6
    endloop
  endfacet
  facet normal 0.382663 -0.923888 0
    outer loop
      vertex 30.1161 10.8839 1.6
      vertex 31 11.25 10.1
      vertex 30.1161 10.8839 10.1
    endloop
  endfacet
  facet normal 0.382663 -0.923888 0
    outer loop
      vertex 31 11.25 10.1
      vertex 30.1161 10.8839 1.6
      vertex 31 11.25 1.6
    endloop
  endfacet
  facet normal -0.38268 0.923881 0
    outer loop
      vertex 31.8839 9.11612 1.6
      vertex 31 8.75 10.1
      vertex 31.8839 9.11612 10.1
    endloop
  endfacet
  facet normal -0.38268 0.923881 0
    outer loop
      vertex 31 8.75 10.1
      vertex 31.8839 9.11612 1.6
      vertex 31 8.75 1.6
    endloop
  endfacet
  facet normal 0.923885 0.38267 0
    outer loop
      vertex 30.1161 9.11612 10.1
      vertex 29.75 10 1.6
      vertex 29.75 10 10.1
    endloop
  endfacet
  facet normal 0.923885 0.38267 0
    outer loop
      vertex 29.75 10 1.6
      vertex 30.1161 9.11612 10.1
      vertex 30.1161 9.11612 1.6
    endloop
  endfacet
  facet normal -0.923885 0.38267 0
    outer loop
      vertex 31.8839 9.11612 1.6
      vertex 32.25 10 10.1
      vertex 32.25 10 1.6
    endloop
  endfacet
  facet normal -0.923885 0.38267 0
    outer loop
      vertex 32.25 10 10.1
      vertex 31.8839 9.11612 1.6
      vertex 31.8839 9.11612 10.1
    endloop
  endfacet
  facet normal 0.38268 0.923881 -0
    outer loop
      vertex 31 8.75 1.6
      vertex 30.1161 9.11612 10.1
      vertex 31 8.75 10.1
    endloop
  endfacet
  facet normal 0.38268 0.923881 0
    outer loop
      vertex 30.1161 9.11612 10.1
      vertex 31 8.75 1.6
      vertex 30.1161 9.11612 1.6
    endloop
  endfacet
  facet normal 0.988082 0.148872 0.039128
    outer loop
      vertex 34.017 54.7938 1.6
      vertex 33.8 54 10.1
      vertex 34.1366 54 1.6
    endloop
  endfacet
  facet normal 0.499587 -0.865379 0.0391331
    outer loop
      vertex 32.7458 51.8109 10.1
      vertex 32.2604 51.1463 1.6
      vertex 32.9557 51.5477 1.6
    endloop
  endfacet
  facet normal -0.365232 0.930094 0.0391309
    outer loop
      vertex 30.179 57.0097 1.6
      vertex 30.3769 56.7298 10.1
      vertex 30.302 57.058 1.6
    endloop
  endfacet
  facet normal -0.36505 0.930165 0.039129
    outer loop
      vertex 30.3769 56.7298 10.1
      vertex 30.179 57.0097 1.6
      vertex 29.6 56.4249 10.1
    endloop
  endfacet
  facet normal -0.0746862 0.996439 0.0391321
    outer loop
      vertex 31.2344 57.1279 1.6
      vertex 30.4339 57.0679 1.6
      vertex 31.2092 56.7922 10.1
    endloop
  endfacet
  facet normal 0.732463 0.679682 0.0391337
    outer loop
      vertex 32.9557 56.4523 1.6
      vertex 32.7458 56.1891 10.1
      vertex 33.5017 55.8639 1.6
    endloop
  endfacet
  facet normal 0.499609 0.865367 0.0391309
    outer loop
      vertex 32.2604 56.8537 1.6
      vertex 32.023 56.6064 10.1
      vertex 32.7458 56.1891 10.1
    endloop
  endfacet
  facet normal 0.49958 0.865384 0.0391305
    outer loop
      vertex 32.023 56.6064 10.1
      vertex 32.2604 56.8537 1.6
      vertex 32.1459 56.9198 1.6
    endloop
  endfacet
  facet normal -0.0747059 0.996437 0.0391338
    outer loop
      vertex 30.4339 57.0679 1.6
      vertex 30.3769 56.7298 10.1
      vertex 31.2092 56.7922 10.1
    endloop
  endfacet
  facet normal -0.074789 0.996431 0.039133
    outer loop
      vertex 30.3769 56.7298 10.1
      vertex 30.4339 57.0679 1.6
      vertex 30.302 57.058 1.6
    endloop
  endfacet
  facet normal 0.900299 0.433509 0.0391326
    outer loop
      vertex 33.6756 54.8253 10.1
      vertex 33.9399 55.0437 1.6
      vertex 33.3135 55.5773 10.1
    endloop
  endfacet
  facet normal 0.90029 0.433529 0.0391329
    outer loop
      vertex 33.9399 55.0437 1.6
      vertex 33.6756 54.8253 10.1
      vertex 33.9973 54.9245 1.6
    endloop
  endfacet
  facet normal -0.999234 0 0.0391347
    outer loop
      vertex 27.8984 54.4675 1.6
      vertex 28.2313 53.5827 10.1
      vertex 28.2313 54.4173 10.1
    endloop
  endfacet
  facet normal -0.999234 0 0.0391347
    outer loop
      vertex 28.2313 53.5827 10.1
      vertex 27.8984 54.4675 1.6
      vertex 27.8984 53.5325 1.6
    endloop
  endfacet
  facet normal 0.732463 -0.679682 0.0391337
    outer loop
      vertex 33.5017 52.1361 1.6
      vertex 32.7458 51.8109 10.1
      vertex 32.9557 51.5477 1.6
    endloop
  endfacet
  facet normal -0.954848 0.294508 0.0391298
    outer loop
      vertex 28.174 55.3609 1.6
      vertex 27.9374 54.5938 1.6
      vertex 28.4773 55.2149 10.1
    endloop
  endfacet
  facet normal -0.365068 0.930158 0.0391273
    outer loop
      vertex 30.179 57.0097 1.6
      vertex 29.4317 56.7164 1.6
      vertex 29.6 56.4249 10.1
    endloop
  endfacet
  facet normal 0.499587 0.865379 0.0391331
    outer loop
      vertex 32.9557 56.4523 1.6
      vertex 32.2604 56.8537 1.6
      vertex 32.7458 56.1891 10.1
    endloop
  endfacet
  facet normal 0.732471 0.679673 0.0391347
    outer loop
      vertex 33.3135 55.5773 10.1
      vertex 33.5017 55.8639 1.6
      vertex 32.7458 56.1891 10.1
    endloop
  endfacet
  facet normal 0.732878 0.679234 0.039129
    outer loop
      vertex 33.5017 55.8639 1.6
      vertex 33.3135 55.5773 10.1
      vertex 33.5916 55.7669 1.6
    endloop
  endfacet
  facet normal 0.900267 0.433577 0.0391259
    outer loop
      vertex 33.5916 55.7669 1.6
      vertex 33.3135 55.5773 10.1
      vertex 33.9399 55.0437 1.6
    endloop
  endfacet
  facet normal 0.988073 0.148929 0.0391338
    outer loop
      vertex 33.6756 54.8253 10.1
      vertex 34.017 54.7938 1.6
      vertex 33.9973 54.9245 1.6
    endloop
  endfacet
  facet normal 0.988072 0.148935 0.0391337
    outer loop
      vertex 34.017 54.7938 1.6
      vertex 33.6756 54.8253 10.1
      vertex 33.8 54 10.1
    endloop
  endfacet
  facet normal -0.954752 -0.294817 0.0391337
    outer loop
      vertex 27.9374 53.4062 1.6
      vertex 28.2313 53.5827 10.1
      vertex 27.8984 53.5325 1.6
    endloop
  endfacet
  facet normal -0.95485 -0.2945 0.0391305
    outer loop
      vertex 28.2313 53.5827 10.1
      vertex 27.9374 53.4062 1.6
      vertex 28.4773 52.7851 10.1
    endloop
  endfacet
  facet normal -0.365068 -0.930158 0.0391273
    outer loop
      vertex 29.6 51.5751 10.1
      vertex 29.4317 51.2836 1.6
      vertex 30.179 50.9903 1.6
    endloop
  endfacet
  facet normal -0.36505 -0.930165 0.039129
    outer loop
      vertex 30.179 50.9903 1.6
      vertex 30.3769 51.2702 10.1
      vertex 29.6 51.5751 10.1
    endloop
  endfacet
  facet normal -0.365232 -0.930094 0.0391309
    outer loop
      vertex 30.3769 51.2702 10.1
      vertex 30.179 50.9903 1.6
      vertex 30.302 50.942 1.6
    endloop
  endfacet
  facet normal -0.0746862 -0.996439 0.0391321
    outer loop
      vertex 31.2092 51.2078 10.1
      vertex 30.4339 50.9321 1.6
      vertex 31.2344 50.8721 1.6
    endloop
  endfacet
  facet normal 0.732878 -0.679234 0.039129
    outer loop
      vertex 33.3135 52.4227 10.1
      vertex 33.5017 52.1361 1.6
      vertex 33.5916 52.2331 1.6
    endloop
  endfacet
  facet normal 0.732471 -0.679673 0.0391347
    outer loop
      vertex 33.5017 52.1361 1.6
      vertex 33.3135 52.4227 10.1
      vertex 32.7458 51.8109 10.1
    endloop
  endfacet
  facet normal -0.954752 0.294817 0.0391337
    outer loop
      vertex 28.2313 54.4173 10.1
      vertex 27.9374 54.5938 1.6
      vertex 27.8984 54.4675 1.6
    endloop
  endfacet
  facet normal -0.95485 0.2945 0.0391305
    outer loop
      vertex 27.9374 54.5938 1.6
      vertex 28.2313 54.4173 10.1
      vertex 28.4773 55.2149 10.1
    endloop
  endfacet
  facet normal 0.222441 0.97416 0.0391331
    outer loop
      vertex 31.2344 57.1279 1.6
      vertex 31.2092 56.7922 10.1
      vertex 32.017 56.9492 1.6
    endloop
  endfacet
  facet normal 0.222203 0.974215 0.0391327
    outer loop
      vertex 32.017 56.9492 1.6
      vertex 32.023 56.6064 10.1
      vertex 32.1459 56.9198 1.6
    endloop
  endfacet
  facet normal 0.222414 0.974167 0.0391306
    outer loop
      vertex 32.023 56.6064 10.1
      vertex 32.017 56.9492 1.6
      vertex 31.2092 56.7922 10.1
    endloop
  endfacet
  facet normal -0.623016 -0.781229 0.0391367
    outer loop
      vertex 28.9475 52.0955 10.1
      vertex 28.7007 51.8665 1.6
      vertex 29.3283 51.366 1.6
    endloop
  endfacet
  facet normal -0.954848 -0.294508 0.0391298
    outer loop
      vertex 28.4773 52.7851 10.1
      vertex 27.9374 53.4062 1.6
      vertex 28.174 52.6391 1.6
    endloop
  endfacet
  facet normal -0.825584 -0.56292 0.0391343
    outer loop
      vertex 28.6262 51.9758 1.6
      vertex 28.9475 52.0955 10.1
      vertex 28.4773 52.7851 10.1
    endloop
  endfacet
  facet normal -0.825674 -0.562788 0.0391359
    outer loop
      vertex 28.9475 52.0955 10.1
      vertex 28.6262 51.9758 1.6
      vertex 28.7007 51.8665 1.6
    endloop
  endfacet
  facet normal -0.623048 -0.781204 0.0391332
    outer loop
      vertex 29.3283 51.366 1.6
      vertex 29.6 51.5751 10.1
      vertex 28.9475 52.0955 10.1
    endloop
  endfacet
  facet normal -0.622741 -0.781449 0.0391294
    outer loop
      vertex 29.6 51.5751 10.1
      vertex 29.3283 51.366 1.6
      vertex 29.4317 51.2836 1.6
    endloop
  endfacet
  facet normal 0 0 1
    outer loop
      vertex 32.25 54 10.1
      vertex 33.8 54 10.1
      vertex 33.6756 54.8253 10.1
    endloop
  endfacet
  facet normal -0 0 1
    outer loop
      vertex 31.8839 54.8839 10.1
      vertex 33.6756 54.8253 10.1
      vertex 33.3135 55.5773 10.1
    endloop
  endfacet
  facet normal 0 0 1
    outer loop
      vertex 33.8 54 10.1
      vertex 32.25 54 10.1
      vertex 33.6756 53.1747 10.1
    endloop
  endfacet
  facet normal 0 0 1
    outer loop
      vertex 31.8839 54.8839 10.1
      vertex 33.3135 55.5773 10.1
      vertex 32.7458 56.1891 10.1
    endloop
  endfacet
  facet normal 0 0 1
    outer loop
      vertex 31.8839 53.1161 10.1
      vertex 33.6756 53.1747 10.1
      vertex 32.25 54 10.1
    endloop
  endfacet
  facet normal 0 0 1
    outer loop
      vertex 33.6756 53.1747 10.1
      vertex 31.8839 53.1161 10.1
      vertex 33.3135 52.4227 10.1
    endloop
  endfacet
  facet normal 0 0 1
    outer loop
      vertex 31.8839 54.8839 10.1
      vertex 32.7458 56.1891 10.1
      vertex 32.023 56.6064 10.1
    endloop
  endfacet
  facet normal 0 0 1
    outer loop
      vertex 33.6756 54.8253 10.1
      vertex 31.8839 54.8839 10.1
      vertex 32.25 54 10.1
    endloop
  endfacet
  facet normal 0 0 1
    outer loop
      vertex 31 55.25 10.1
      vertex 32.023 56.6064 10.1
      vertex 31.2092 56.7922 10.1
    endloop
  endfacet
  facet normal 0 0 1
    outer loop
      vertex 32.023 56.6064 10.1
      vertex 31 55.25 10.1
      vertex 31.8839 54.8839 10.1
    endloop
  endfacet
  facet normal -0 0 1
    outer loop
      vertex 30.3769 56.7298 10.1
      vertex 31 55.25 10.1
      vertex 31.2092 56.7922 10.1
    endloop
  endfacet
  facet normal -0 0 1
    outer loop
      vertex 29.6 56.4249 10.1
      vertex 31 55.25 10.1
      vertex 30.3769 56.7298 10.1
    endloop
  endfacet
  facet normal 0 0 1
    outer loop
      vertex 31 55.25 10.1
      vertex 29.6 56.4249 10.1
      vertex 30.1161 54.8839 10.1
    endloop
  endfacet
  facet normal -0 0 1
    outer loop
      vertex 28.9475 55.9045 10.1
      vertex 30.1161 54.8839 10.1
      vertex 29.6 56.4249 10.1
    endloop
  endfacet
  facet normal 0 0 1
    outer loop
      vertex 33.3135 52.4227 10.1
      vertex 31.8839 53.1161 10.1
      vertex 32.7458 51.8109 10.1
    endloop
  endfacet
  facet normal 0 0 1
    outer loop
      vertex 32.7458 51.8109 10.1
      vertex 31.8839 53.1161 10.1
      vertex 32.023 51.3936 10.1
    endloop
  endfacet
  facet normal -0 0 1
    outer loop
      vertex 31 52.75 10.1
      vertex 32.023 51.3936 10.1
      vertex 31.8839 53.1161 10.1
    endloop
  endfacet
  facet normal 0 0 1
    outer loop
      vertex 32.023 51.3936 10.1
      vertex 31 52.75 10.1
      vertex 31.2092 51.2078 10.1
    endloop
  endfacet
  facet normal 0 0 1
    outer loop
      vertex 31 52.75 10.1
      vertex 30.3769 51.2702 10.1
      vertex 31.2092 51.2078 10.1
    endloop
  endfacet
  facet normal 0 0 1
    outer loop
      vertex 29.6 51.5751 10.1
      vertex 31 52.75 10.1
      vertex 30.1161 53.1161 10.1
    endloop
  endfacet
  facet normal 0 0 1
    outer loop
      vertex 28.4773 52.7851 10.1
      vertex 30.1161 53.1161 10.1
      vertex 29.75 54 10.1
    endloop
  endfacet
  facet normal 0 0 1
    outer loop
      vertex 31 52.75 10.1
      vertex 29.6 51.5751 10.1
      vertex 30.3769 51.2702 10.1
    endloop
  endfacet
  facet normal -0 0 1
    outer loop
      vertex 28.4773 55.2149 10.1
      vertex 30.1161 54.8839 10.1
      vertex 28.9475 55.9045 10.1
    endloop
  endfacet
  facet normal 0 0 1
    outer loop
      vertex 30.1161 54.8839 10.1
      vertex 28.4773 55.2149 10.1
      vertex 29.75 54 10.1
    endloop
  endfacet
  facet normal 0 0 1
    outer loop
      vertex 30.1161 53.1161 10.1
      vertex 28.9475 52.0955 10.1
      vertex 29.6 51.5751 10.1
    endloop
  endfacet
  facet normal -0 0 1
    outer loop
      vertex 28.2313 54.4173 10.1
      vertex 29.75 54 10.1
      vertex 28.4773 55.2149 10.1
    endloop
  endfacet
  facet normal 0 0 1
    outer loop
      vertex 30.1161 53.1161 10.1
      vertex 28.4773 52.7851 10.1
      vertex 28.9475 52.0955 10.1
    endloop
  endfacet
  facet normal 0 0 1
    outer loop
      vertex 28.2313 53.5827 10.1
      vertex 29.75 54 10.1
      vertex 28.2313 54.4173 10.1
    endloop
  endfacet
  facet normal 0 0 1
    outer loop
      vertex 29.75 54 10.1
      vertex 28.2313 53.5827 10.1
      vertex 28.4773 52.7851 10.1
    endloop
  endfacet
  facet normal 0.222441 -0.97416 0.0391331
    outer loop
      vertex 32.017 51.0508 1.6
      vertex 31.2092 51.2078 10.1
      vertex 31.2344 50.8721 1.6
    endloop
  endfacet
  facet normal -0.074789 -0.996431 0.039133
    outer loop
      vertex 30.4339 50.9321 1.6
      vertex 30.3769 51.2702 10.1
      vertex 30.302 50.942 1.6
    endloop
  endfacet
  facet normal -0.0747059 -0.996437 0.0391338
    outer loop
      vertex 30.3769 51.2702 10.1
      vertex 30.4339 50.9321 1.6
      vertex 31.2092 51.2078 10.1
    endloop
  endfacet
  facet normal 0.900267 -0.433577 0.0391259
    outer loop
      vertex 33.9399 52.9563 1.6
      vertex 33.3135 52.4227 10.1
      vertex 33.5916 52.2331 1.6
    endloop
  endfacet
  facet normal -0.825674 0.562788 0.0391359
    outer loop
      vertex 28.6262 56.0242 1.6
      vertex 28.9475 55.9045 10.1
      vertex 28.7007 56.1335 1.6
    endloop
  endfacet
  facet normal -0.825584 0.56292 0.0391343
    outer loop
      vertex 28.9475 55.9045 10.1
      vertex 28.6262 56.0242 1.6
      vertex 28.4773 55.2149 10.1
    endloop
  endfacet
  facet normal -0.825624 -0.562863 0.0391282
    outer loop
      vertex 28.4773 52.7851 10.1
      vertex 28.174 52.6391 1.6
      vertex 28.6262 51.9758 1.6
    endloop
  endfacet
  facet normal 0.222414 -0.974167 0.0391306
    outer loop
      vertex 32.017 51.0508 1.6
      vertex 32.023 51.3936 10.1
      vertex 31.2092 51.2078 10.1
    endloop
  endfacet
  facet normal 0.222203 -0.974215 0.0391327
    outer loop
      vertex 32.023 51.3936 10.1
      vertex 32.017 51.0508 1.6
      vertex 32.1459 51.0802 1.6
    endloop
  endfacet
  facet normal 0.49958 -0.865384 0.0391305
    outer loop
      vertex 32.2604 51.1463 1.6
      vertex 32.023 51.3936 10.1
      vertex 32.1459 51.0802 1.6
    endloop
  endfacet
  facet normal 0.499609 -0.865367 0.0391309
    outer loop
      vertex 32.023 51.3936 10.1
      vertex 32.2604 51.1463 1.6
      vertex 32.7458 51.8109 10.1
    endloop
  endfacet
  facet normal 0.988082 -0.148872 0.039128
    outer loop
      vertex 34.1366 54 1.6
      vertex 33.8 54 10.1
      vertex 34.017 53.2062 1.6
    endloop
  endfacet
  facet normal -0.623016 0.781229 0.0391367
    outer loop
      vertex 29.3283 56.634 1.6
      vertex 28.7007 56.1335 1.6
      vertex 28.9475 55.9045 10.1
    endloop
  endfacet
  facet normal -0.825624 0.562863 0.0391282
    outer loop
      vertex 28.6262 56.0242 1.6
      vertex 28.174 55.3609 1.6
      vertex 28.4773 55.2149 10.1
    endloop
  endfacet
  facet normal 0.90029 -0.433529 0.0391329
    outer loop
      vertex 33.6756 53.1747 10.1
      vertex 33.9399 52.9563 1.6
      vertex 33.9973 53.0755 1.6
    endloop
  endfacet
  facet normal 0.900299 -0.433509 0.0391326
    outer loop
      vertex 33.9399 52.9563 1.6
      vertex 33.6756 53.1747 10.1
      vertex 33.3135 52.4227 10.1
    endloop
  endfacet
  facet normal 0.988072 -0.148935 0.0391337
    outer loop
      vertex 33.6756 53.1747 10.1
      vertex 34.017 53.2062 1.6
      vertex 33.8 54 10.1
    endloop
  endfacet
  facet normal 0.988073 -0.148929 0.0391338
    outer loop
      vertex 34.017 53.2062 1.6
      vertex 33.6756 53.1747 10.1
      vertex 33.9973 53.0755 1.6
    endloop
  endfacet
  facet normal -0.622741 0.781449 0.0391294
    outer loop
      vertex 29.3283 56.634 1.6
      vertex 29.6 56.4249 10.1
      vertex 29.4317 56.7164 1.6
    endloop
  endfacet
  facet normal -0.623048 0.781204 0.0391332
    outer loop
      vertex 29.6 56.4249 10.1
      vertex 29.3283 56.634 1.6
      vertex 28.9475 55.9045 10.1
    endloop
  endfacet
  facet normal -0.923888 -0.382663 0
    outer loop
      vertex 32.25 54 1.6
      vertex 31.8839 54.8839 10.1
      vertex 31.8839 54.8839 1.6
    endloop
  endfacet
  facet normal -0.923888 -0.382663 0
    outer loop
      vertex 31.8839 54.8839 10.1
      vertex 32.25 54 1.6
      vertex 32.25 54 10.1
    endloop
  endfacet
  facet normal 0.923888 -0.382663 0
    outer loop
      vertex 29.75 54 10.1
      vertex 30.1161 54.8839 1.6
      vertex 30.1161 54.8839 10.1
    endloop
  endfacet
  facet normal 0.923888 -0.382663 0
    outer loop
      vertex 30.1161 54.8839 1.6
      vertex 29.75 54 10.1
      vertex 29.75 54 1.6
    endloop
  endfacet
  facet normal -0.382663 -0.923888 0
    outer loop
      vertex 31 55.25 1.6
      vertex 31.8839 54.8839 10.1
      vertex 31 55.25 10.1
    endloop
  endfacet
  facet normal -0.382663 -0.923888 -0
    outer loop
      vertex 31.8839 54.8839 10.1
      vertex 31 55.25 1.6
      vertex 31.8839 54.8839 1.6
    endloop
  endfacet
  facet normal 0.382663 -0.923888 0
    outer loop
      vertex 30.1161 54.8839 1.6
      vertex 31 55.25 10.1
      vertex 30.1161 54.8839 10.1
    endloop
  endfacet
  facet normal 0.382663 -0.923888 0
    outer loop
      vertex 31 55.25 10.1
      vertex 30.1161 54.8839 1.6
      vertex 31 55.25 1.6
    endloop
  endfacet
  facet normal -0.382663 0.923888 0
    outer loop
      vertex 31.8839 53.1161 1.6
      vertex 31 52.75 10.1
      vertex 31.8839 53.1161 10.1
    endloop
  endfacet
  facet normal -0.382663 0.923888 0
    outer loop
      vertex 31 52.75 10.1
      vertex 31.8839 53.1161 1.6
      vertex 31 52.75 1.6
    endloop
  endfacet
  facet normal 0.923888 0.382663 0
    outer loop
      vertex 30.1161 53.1161 10.1
      vertex 29.75 54 1.6
      vertex 29.75 54 10.1
    endloop
  endfacet
  facet normal 0.923888 0.382663 0
    outer loop
      vertex 29.75 54 1.6
      vertex 30.1161 53.1161 10.1
      vertex 30.1161 53.1161 1.6
    endloop
  endfacet
  facet normal -0.923888 0.382663 0
    outer loop
      vertex 31.8839 53.1161 1.6
      vertex 32.25 54 10.1
      vertex 32.25 54 1.6
    endloop
  endfacet
  facet normal -0.923888 0.382663 0
    outer loop
      vertex 32.25 54 10.1
      vertex 31.8839 53.1161 1.6
      vertex 31.8839 53.1161 10.1
    endloop
  endfacet
  facet normal 0.382663 0.923888 -0
    outer loop
      vertex 31 52.75 1.6
      vertex 30.1161 53.1161 10.1
      vertex 31 52.75 10.1
    endloop
  endfacet
  facet normal 0.382663 0.923888 0
    outer loop
      vertex 30.1161 53.1161 10.1
      vertex 31 52.75 1.6
      vertex 30.1161 53.1161 1.6
    endloop
  endfacet
  facet normal -1 0 0
    outer loop
      vertex 60 1.55 1.6
      vertex 60 7 7.6
      vertex 60 7 1.6
    endloop
  endfacet
  facet normal -1 -0 0
    outer loop
      vertex 60 7 7.6
      vertex 60 1.55 1.6
      vertex 60 1.55 7.6
    endloop
  endfacet
  facet normal -0 0 1
    outer loop
      vertex 60 7 7.6
      vertex 61.15 1.55 7.6
      vertex 61.15 7 7.6
    endloop
  endfacet
  facet normal 0 0 1
    outer loop
      vertex 61.15 1.55 7.6
      vertex 60 7 7.6
      vertex 60 1.55 7.6
    endloop
  endfacet
  facet normal 1 -0 0
    outer loop
      vertex 61.15 1.55 7.6
      vertex 61.15 7 1.6
      vertex 61.15 7 7.6
    endloop
  endfacet
  facet normal 1 0 0
    outer loop
      vertex 61.15 7 1.6
      vertex 61.15 1.55 7.6
      vertex 61.15 1.55 1.6
    endloop
  endfacet
  facet normal 0 1 -0
    outer loop
      vertex 61.15 7 1.6
      vertex 60 7 7.6
      vertex 61.15 7 7.6
    endloop
  endfacet
  facet normal 0 1 0
    outer loop
      vertex 60 7 7.6
      vertex 61.15 7 1.6
      vertex 60 7 1.6
    endloop
  endfacet
  facet normal -1 0 0
    outer loop
      vertex 60 57 1.6
      vertex 60 62.45 7.6
      vertex 60 62.45 1.6
    endloop
  endfacet
  facet normal -1 -0 0
    outer loop
      vertex 60 62.45 7.6
      vertex 60 57 1.6
      vertex 60 57 7.6
    endloop
  endfacet
  facet normal -0 0 1
    outer loop
      vertex 60 62.45 7.6
      vertex 61.15 57 7.6
      vertex 61.15 62.45 7.6
    endloop
  endfacet
  facet normal 0 0 1
    outer loop
      vertex 61.15 57 7.6
      vertex 60 62.45 7.6
      vertex 60 57 7.6
    endloop
  endfacet
  facet normal 1 -0 0
    outer loop
      vertex 61.15 57 7.6
      vertex 61.15 62.45 1.6
      vertex 61.15 62.45 7.6
    endloop
  endfacet
  facet normal 1 0 0
    outer loop
      vertex 61.15 62.45 1.6
      vertex 61.15 57 7.6
      vertex 61.15 57 1.6
    endloop
  endfacet
  facet normal 0 -1 0
    outer loop
      vertex 60 57 1.6
      vertex 61.15 57 7.6
      vertex 60 57 7.6
    endloop
  endfacet
  facet normal 0 -1 -0
    outer loop
      vertex 61.15 57 7.6
      vertex 60 57 1.6
      vertex 61.15 57 1.6
    endloop
  endfacet
endsolid OpenSCAD_Model
