<?xml version="1.0" encoding="UTF-8" standalone="no"?>
<!-- Created with Inkscape (http://www.inkscape.org/) -->

<svg
   width="210mm"
   height="297mm"
   viewBox="0 0 210 297"
   version="1.1"
   id="svg1"
   xml:space="preserve"
   inkscape:version="1.4 (86a8ad7, 2024-10-11)"
   sodipodi:docname="8bitlogo_bw.svg"
   xmlns:inkscape="http://www.inkscape.org/namespaces/inkscape"
   xmlns:sodipodi="http://sodipodi.sourceforge.net/DTD/sodipodi-0.dtd"
   xmlns="http://www.w3.org/2000/svg"
   xmlns:svg="http://www.w3.org/2000/svg"><sodipodi:namedview
     id="namedview1"
     pagecolor="#ffffff"
     bordercolor="#000000"
     borderopacity="0.25"
     inkscape:showpageshadow="2"
     inkscape:pageopacity="0.0"
     inkscape:pagecheckerboard="0"
     inkscape:deskcolor="#d1d1d1"
     inkscape:document-units="mm"
     inkscape:zoom="2.1647727"
     inkscape:cx="341.14436"
     inkscape:cy="298.18373"
     inkscape:window-width="2479"
     inkscape:window-height="1417"
     inkscape:window-x="73"
     inkscape:window-y="-8"
     inkscape:window-maximized="1"
     inkscape:current-layer="layer1" /><defs
     id="defs1" /><g
     inkscape:label="Warstwa 1"
     inkscape:groupmode="layer"
     id="layer1"><path
       style="fill:#000000;stroke-width:0.105409"
       d="m 57.833604,113.13762 h -0.371859 v -5.20601 -5.20603 h 0.371859 0.371857 v 4.27638 4.27637 h 0.371859 0.371858 v -0.37186 -0.37186 h 0.371859 0.371858 v -0.37186 -0.37186 h 0.371858 0.371858 v -1.3015 -1.3015 h 0.743717 0.743719 v -0.74372 -0.74372 h -0.371858 -0.371861 v 0.37186 0.37186 h -0.371859 -0.371858 v -0.74372 -0.74371 h -0.185928 -0.18593 v 0.74371 0.74372 h -0.185928 -0.18593 v -1.85929 -1.8593 h 0.371858 0.371858 v 1.11558 1.11558 h 1.115578 1.115574 v 1.3015 1.3015 h -0.371858 -0.371858 v 0.18593 0.18594 h -0.371858 -0.371861 v 0.55778 0.55779 h 0.743719 0.743716 v 0.37186 0.37185 h -1.115574 -1.115578 v 0.37186 0.37186 h -0.371858 -0.371858 v 0.37186 0.37186 h -0.371858 -0.371859 v 0.37186 0.37185 H 58.57732 58.205461 v 0.5578 0.55778 z m 55.035046,-0.37186 h -0.37185 v -0.37186 -0.37186 h -0.37187 -0.37186 v -0.37185 -0.37186 h -0.37185 -0.37186 v -0.37186 -0.37186 h -0.37186 -0.37186 v -0.37186 -0.37186 h -1.48744 -1.48743 v -0.37185 -0.37186 h 1.11558 1.11558 v -0.37186 -0.37186 h -0.74373 -0.7437 v -0.18593 -0.18592 h -0.37186 -0.37187 v -1.48744 -1.48743 h 0.37187 0.37186 v 1.3015 1.3015 h 0.7437 0.74373 v -1.3015 -1.3015 h -0.37186 -0.37187 v -0.37186 -0.37187 h -0.37185 -0.37185 v -0.37185 -0.37185 h -0.37186 -0.37187 v -0.37186 -0.37187 h -0.37185 -0.37186 v -0.37186 -0.37185 h -0.37186 -0.37186 v -0.37186 -0.37187 h -0.37186 -0.37185 v -0.37185 -0.37185 h -0.37186 -0.37186 v -0.37186 -0.371865 h -0.18593 -0.18593 v -0.371854 -0.371862 h 0.18593 0.18593 v 0.371862 0.371854 h 0.37186 0.37186 v 0.371865 0.37186 h 0.37185 0.37186 v 0.37185 0.37185 h 0.37186 0.37186 v 0.37187 0.37186 h 0.37186 0.37185 v 0.37185 0.37186 h 0.37187 0.37186 v 0.37187 0.37186 h 0.37185 0.37185 v 0.37185 0.37185 h 0.37187 0.37186 v 0.37187 0.37186 h 0.37186 0.37185 v -1.11558 -1.11558 h 0.37186 0.37186 v 1.8593 1.85929 h -0.18593 -0.18593 v -0.74372 -0.74371 h -0.18593 -0.18593 v 2.41707 2.41708 h 0.37186 0.37186 v 0.37186 0.37186 h 0.37186 0.37185 v 0.37186 0.37186 h 0.37186 0.37187 v -4.46231 -4.4623 h 0.37185 0.37186 v 5.20602 5.20602 z m -48.341595,-2.97487 h -0.371859 v -0.18592 -0.18593 H 63.783338 63.41148 v -0.5578 -0.55778 h 0.371858 0.371858 v 0.37186 0.37186 h 0.371859 0.371857 v -0.74372 -0.74372 h -0.371857 -0.371859 v -0.18593 -0.18592 H 63.783338 63.41148 v -1.11558 -1.11557 h 1.115575 1.115577 v 0.37185 0.37186 h -0.74372 -0.743716 v 0.55779 0.55778 h 0.743716 0.74372 v 1.30151 1.30151 h -0.371861 -0.371859 v 0.18593 0.18592 z m 3.346726,0 h -0.743716 v -0.18592 -0.18593 h -0.371859 -0.371861 v -2.23115 -2.23115 h 0.371861 0.371859 v 0.37185 0.37186 h 1.115575 1.115575 v 0.55779 0.55778 H 68.24564 67.130065 v 1.11559 1.11557 h 0.743716 0.743717 v -0.74372 -0.74372 h 0.371858 0.371859 v 0.92965 0.92965 h -0.371859 -0.371858 v 0.18593 0.18592 z m 2.603008,0 h -0.371858 v -2.41708 -2.41707 h 0.371858 0.371861 v 1.67336 1.67336 h 0.371858 0.371856 v -1.67336 -1.67336 h 0.37186 0.37186 v 2.41707 2.41708 h -0.37186 -0.37186 v -0.37185 -0.37186 H 71.220508 70.84865 v 0.37186 0.37185 z m 5.949738,0 h -0.371861 v -2.41708 -2.41707 h 0.743717 0.743718 v 0.18593 0.18592 h 0.371858 0.371859 v 2.23115 2.23115 h -0.371859 -0.371858 v -0.37185 -0.37186 h -0.371857 -0.371861 v 0.37186 0.37185 z m 0.743717,-1.48743 h 0.371857 v -1.3015 -1.30151 h -0.371857 -0.371861 v 1.30151 1.3015 z m 2.231148,1.48743 h -0.371857 v -2.41708 -2.41707 h 1.115574 1.115574 v 0.18593 0.18592 h 0.371862 0.371855 v 2.23115 2.23115 h -0.371855 -0.371862 v -2.04522 -2.04522 h -0.371857 -0.371859 v 0.18593 0.18593 h -0.371858 -0.371858 v 1.8593 1.85928 z m 3.718586,0 h -0.371859 v -2.41708 -2.41707 h 1.115576 1.115576 v 0.18593 0.18592 h 0.371853 0.371859 v 2.23115 2.23115 h -0.371859 -0.371853 v -2.04522 -2.04522 h -0.37186 -0.371859 v 0.18593 0.18593 h -0.371857 -0.37186 v 1.8593 1.85928 z m 3.718583,0 h -0.371859 v -1.67336 -1.67336 h 0.371859 0.371859 v 1.67336 1.67336 z m 2.231147,0 h -1.115569 v -2.41708 -2.41707 h 0.371862 0.371853 v 2.04522 2.04522 h 0.371854 0.371862 v -2.04522 -2.04522 h 0.371861 0.371854 v 2.41707 2.41708 z m 3.34673,0 h -0.743715 v -0.18592 -0.18593 H 91.300862 90.929 v -2.04523 -2.04522 h 0.371862 0.371861 v -0.18592 -0.18593 h 0.743715 0.743716 v 0.18593 0.18592 h 0.371861 0.371862 v 1.11558 1.11557 h -0.371862 -0.371861 v 0.18593 0.18594 h -0.743716 -0.743715 v 0.55778 0.55779 h 0.743715 0.743716 v -0.18594 -0.18592 h 0.371861 0.371862 v 0.37186 0.37186 h -0.371862 -0.371861 v 0.18593 0.18592 z m 0,-2.603 h 0.743716 v -0.74372 -0.74372 h -0.743716 -0.743715 v 0.74372 0.74372 z m 2.603007,2.603 h -0.371861 v -2.41708 -2.41707 h 1.115585 1.115577 v 1.11557 1.11558 h -0.37187 -0.371854 v -0.74372 -0.74372 h -0.371853 -0.371862 v 2.04522 2.04522 z m 4.090446,0 h -0.743715 v -0.18592 -0.18593 h -0.371862 -0.371861 v -0.37186 -0.37186 h 0.371861 0.371862 v 0.18592 0.18594 h 0.743715 0.743715 v -0.55779 -0.55778 h -0.743715 -0.743715 v -0.18594 -0.18593 h -0.371862 -0.371861 v -1.11557 -1.11558 h 0.371861 0.371862 v -0.18592 -0.18593 h 0.743715 0.743715 v 0.18593 0.18592 h 0.371854 0.37186 v 0.55779 0.55779 h -0.37186 -0.371854 v -0.37186 -0.37186 h -0.743715 -0.743715 v 0.74372 0.74372 h 0.743715 0.743715 v 0.18592 0.18593 h 0.371854 0.37186 v 0.92965 0.92965 h -0.37186 -0.371854 v 0.18593 0.18592 z m 3.346729,0 h -1.11558 v -1.48743 -1.48744 h 0.74372 0.74372 v -0.55778 -0.55779 h -0.37186 -0.37186 v 0.18593 0.18593 h -0.37186 -0.37186 v -0.55778 -0.55779 h 0.74372 0.74372 v 0.18593 0.18592 h 0.37185 0.37186 v 2.23115 2.23115 z m 0,-0.74371 h 0.37186 v -0.74372 -0.74372 h -0.37186 -0.37186 v 0.74372 0.74372 z m 2.23115,0.74371 h -0.37186 v -2.41708 -2.41707 h 1.11557 1.11558 v 1.11557 1.11558 h -0.37186 -0.37186 v -0.74372 -0.74372 h -0.37186 -0.37185 v 2.04522 2.04522 z m -17.849209,-4.09044 h -0.371859 v -0.37186 -0.37185 h 0.371859 0.371859 v 0.37185 0.37186 z m -23.79894,-1.11557 h -0.371858 v -0.37187 -0.37185 h 0.371858 0.371859 v -0.37185 -0.37186 h 0.371858 0.371858 v -0.37187 -0.37186 h 0.371859 0.371857 v -0.37185 -0.37186 h 0.371859 0.371861 v -0.37187 -0.37185 h 0.371856 0.371857 v -0.18593 -0.18592 h 0.371861 0.371859 v 0.18592 0.18593 h -0.371859 -0.371861 v 0.37185 0.37187 h -0.371857 -0.371856 v 0.37186 0.37185 h -0.371861 -0.371859 v 0.37186 0.37187 h -0.371857 -0.371859 v 0.37186 0.37185 H 63.783338 63.41148 v 0.37185 0.37187 z m -34.582835,-2.23116 h -2.974868 v -0.74371 -0.74372 h 2.231152 2.23115 v -1.115575 -1.115577 h 0.743715 0.743717 v 1.859302 1.85928 z m 10.412037,0 h -2.974868 v -0.74371 -0.74372 h 2.974868 2.974866 v 0.74372 0.74371 z m 10.040178,0 h -3.346727 v -2.974859 -2.974869 h 0.743719 0.743716 v 2.231146 2.231152 h 2.603008 2.60301 v 0.74372 0.74371 z m 10.040177,0 H 55.97431 v -2.974859 -2.974869 h 0.743719 0.743716 v 2.231146 2.231152 h 2.23115 2.231152 v 0.74372 0.74371 z m 10.412037,0 h -0.743717 v -1.11558 -1.11556 h -1.115575 -1.115578 v -1.859296 -1.859292 h 0.74372 0.743716 v 1.115569 1.115577 h 0.371859 0.371858 v -0.371854 -0.371861 h 0.371858 0.371859 v -0.371862 -0.371853 h 0.371857 0.371859 v -0.371862 -0.371854 h 0.185931 0.185927 v 0.371854 0.371862 h -0.185927 -0.185931 v 0.371853 0.371862 h -0.371859 -0.371857 v 0.371861 0.371854 h 0.371857 0.371859 v 1.859302 1.85928 z m 9.296461,0 h -1.859293 v -2.974859 -2.974869 h 0.743718 0.743717 v 2.231146 2.231152 h 0.371858 0.371859 v -1.115575 -1.115577 h 1.115574 1.115574 v -1.115577 -1.115569 h 0.743717 0.743719 v 1.859292 1.859296 h -1.115574 -1.115578 v 1.11556 1.11558 z m 11.527609,0 H 87.21042 v -1.85928 -1.859302 h 2.974865 2.974869 v 0.743723 0.743719 H 90.929 88.697854 v 0.37186 0.37185 H 90.929 93.160154 v 0.74372 0.74371 z m 8.180891,0 h -0.743723 v -2.974859 -2.974869 h 0.743723 0.743715 v 2.974869 2.974859 z m 4.462304,0 h -0.74372 v -2.23114 -2.231157 h -1.11558 -1.115574 v -0.743715 -0.743716 h 1.859294 1.85929 v 2.974869 2.974859 z m 8.18088,0 h -0.74372 v -1.85928 -1.859302 h 0.74372 0.74371 v 1.859302 1.85928 z m 9.66832,0 h -2.97487 v -2.974859 -2.974869 h 0.74372 0.74372 v 2.231146 2.231152 h 2.23114 2.23116 v 0.74372 0.74371 z m 8.18089,0 h -0.74372 v -1.85928 -1.859302 h 0.74372 0.74371 v 1.859302 1.85928 z m 3.34672,0 H 130.346 v -1.85928 -1.859302 h 1.11558 1.11557 v -0.371854 -0.371861 h -2.23115 -2.23115 v -0.743715 -0.743716 h 2.97487 2.97486 v 1.859292 1.859296 h -1.11557 -1.11557 v 0.37186 0.37185 h 1.11557 1.11557 v 0.74372 0.74371 z m 8.9246,0 h -2.60301 v -1.85928 -1.859302 h 2.60301 2.60302 v 0.743723 0.743719 h -1.8593 -1.85929 v 0.37186 0.37185 h 1.85929 1.8593 v 0.74372 0.74371 z m -31.42203,-1.11558 h -0.18593 v -0.37185 -0.37185 h -0.37186 -0.37187 v -0.37186 -0.371865 h -0.37185 -0.37185 v -0.371854 -0.371862 h -0.37186 -0.37187 v -0.371861 -0.371854 h -0.37185 -0.37186 v -0.371861 -0.371862 h -0.37186 -0.37186 v -0.371853 -0.371862 h -0.37186 -0.37185 v -0.371854 -0.371861 h 0.37185 0.37186 v 0.371861 0.371854 h 0.37186 0.37186 v 0.371862 0.371853 h 0.37186 0.37185 v 0.371862 0.371861 h 0.37187 0.37186 v 0.371854 0.371861 h 0.37185 0.37185 v 0.371862 0.371854 h 0.37187 0.37186 v 0.371865 0.37186 h 0.18593 0.18593 v 0.37185 0.37185 z m -48.155671,-0.7437 h -0.371861 v -0.37186 -0.371865 h 0.371861 0.371858 v -0.371854 -0.371862 h 0.371858 0.371858 v -0.371861 -0.371854 h 0.371858 0.371859 v -0.371861 -0.371862 h 0.371858 0.371858 v -0.371853 -0.371862 h 0.371859 0.371857 v -0.371854 -0.371861 h 0.371859 0.371861 v 0.371861 0.371854 h -0.371861 -0.371859 v 0.371862 0.371853 h -0.371857 -0.371859 v 0.371862 0.371861 H 63.783338 63.41148 v 0.371854 0.371861 h -0.371859 -0.371858 v 0.371862 0.371854 h -0.371858 -0.371858 v 0.371865 0.37186 z m -35.326554,-0.37186 h -0.743717 v -1.859296 -1.859292 h 2.974868 2.974866 v 0.743716 0.743715 h -2.231149 -2.231152 v 1.115576 1.115581 z m 12.643188,0 h -0.743716 v -0.743719 -0.743723 h 0.743716 0.743716 v 0.743723 0.743719 z m 32.723541,0 H 70.84865 v -1.859296 -1.859292 h 0.743714 0.74372 v 1.859292 1.859296 z m 51.316466,0 h -0.74372 v -1.859296 -1.859292 h 0.74372 0.74372 v 1.859292 1.859296 z M 38.868823,97.891423 h -2.974868 v -0.743715 -0.743716 h 2.974868 2.974866 v 0.743716 0.743715 z m 51.316462,0 H 87.21042 v -0.743715 -0.743716 h 2.974865 2.974869 v 0.743716 0.743715 z m 20.824075,0 h -2.97486 v -0.743715 -0.743716 h 2.97486 2.97487 v 0.743716 0.743715 z m 30.12053,0 h -2.60301 v -0.743715 -0.743716 h 2.60301 2.60302 v 0.743716 0.743715 z M 71.220508,96.032131 H 70.84865 V 95.8462 95.660269 h 0.371858 0.371856 v -0.371853 -0.371854 h 0.37186 0.37186 V 94.5447 94.172839 h 0.371857 0.371859 v -0.371862 -0.371853 h 0.371858 0.371858 V 93.057262 92.6854 h 0.371858 0.371859 v -0.371853 -0.371854 h 0.371858 0.371858 V 91.569832 91.19797 h 0.371858 0.371859 v -0.371853 -0.371862 h 0.371861 0.371856 V 90.082393 89.71054 h 0.371861 0.371857 v -0.371857 -0.371862 h 0.371858 0.371859 V 88.59496 88.223098 h 0.371858 0.371859 v -0.371854 -0.371861 h 0.371857 0.371859 v -0.371862 -0.371853 h 0.371858 0.371858 v -0.371862 -0.371854 h 0.371859 0.371857 v -0.371861 -0.371854 h 0.371862 0.371855 v -0.371861 -0.371862 h 0.371861 0.371858 v -0.371862 -0.371853 h 0.371859 0.371857 v 0.371853 0.371862 h -0.371857 -0.371859 v 0.371862 0.371861 H 82.376261 82.0044 v 0.371854 0.371861 h -0.371855 -0.371862 v 0.371854 0.371862 h -0.371857 -0.371859 v 0.371853 0.371862 h -0.371858 -0.371858 v 0.371861 0.371854 h -0.371859 -0.371857 v 0.371862 0.371861 h -0.371859 -0.371858 v 0.371862 0.371857 h -0.371859 -0.371858 v 0.371853 0.371862 h -0.371857 -0.371861 v 0.371862 0.371853 h -0.371856 -0.371861 v 0.371862 0.371861 h -0.371859 -0.371858 v 0.371854 0.371853 h -0.371858 -0.371858 v 0.371862 0.371862 h -0.371859 -0.371858 v 0.371853 0.371862 H 73.451658 73.0798 v 0.371861 0.371862 h -0.371859 -0.371857 v 0.371854 0.371853 h -0.37186 -0.37186 v 0.185931 0.185931 z m 28.261245,0 H 99.109891 V 95.660269 95.288416 H 98.738029 98.366176 V 94.916562 94.5447 h -0.371862 -0.371861 v -0.371861 -0.371862 h -0.371854 -0.371853 v -0.371853 -0.371862 h -0.37187 -0.371854 V 92.6854 92.313547 H 95.763169 95.391307 V 91.941693 91.569832 H 95.019445 94.647584 V 91.19797 90.826117 H 94.27573 93.903877 V 90.454255 90.082393 H 93.532015 93.160154 V 89.71054 89.338683 H 92.7883 92.416438 V 88.966821 88.59496 H 92.044577 91.672723 V 88.223098 87.851244 H 91.300862 90.929 V 87.479383 87.107521 H 90.557146 90.185285 V 86.735668 86.363806 H 89.813431 89.44157 V 85.991952 85.620091 H 89.069708 88.697854 V 85.248237 84.876376 H 88.326001 87.954139 V 84.504514 84.132652 H 87.582278 87.21042 v -0.371853 -0.371854 h -0.371859 -0.371859 v -2.974877 -2.97486 h 0.371859 0.371859 v 2.97486 2.974877 h 0.371858 0.371861 v 0.371854 0.371853 h 0.371862 0.371853 v 0.371862 0.371862 h 0.371854 0.371862 v 0.371861 0.371854 h 0.371861 0.371854 v 0.371861 0.371854 H 90.557146 90.929 v 0.371862 0.371853 h 0.371862 0.371861 v 0.371862 0.371861 h 0.371854 0.371861 v 0.371854 0.371862 h 0.371862 0.371854 v 0.371861 0.371862 h 0.371861 0.371862 v 0.371857 0.371853 h 0.371853 0.371854 v 0.371862 0.371862 h 0.371861 0.371862 v 0.371853 0.371862 h 0.371862 0.371853 v 0.371861 0.371854 h 0.371854 0.37187 v 0.371853 0.371862 h 0.371853 0.371854 v 0.371862 0.371853 h 0.371861 0.371862 v 0.371862 0.371861 h 0.371853 0.371862 v 0.371862 0.371854 h 0.371862 0.371853 v 0.371853 0.371862 z M 65.270771,94.5447 h -0.371859 v -5.020091 -5.020095 h -0.371857 -0.371859 v 0.371862 0.371861 H 63.783338 63.41148 v 0.371854 0.371861 h -0.371859 -0.371858 v 0.371854 0.371862 h -0.371858 -0.371858 v -2.974869 -2.974861 h 0.371858 0.371858 v -0.37187 -0.371853 h 0.371858 0.371859 V 79.670353 79.2985 h 0.371858 0.371858 v -0.371862 -0.371862 h 0.371859 0.371857 v -0.371853 -0.371862 h 0.371859 0.371861 v -0.371853 -0.371862 h 0.371856 0.371857 v -0.371862 -0.371853 h 0.371861 0.371859 v -0.371862 -0.371853 h 0.371858 0.371858 v -0.371862 -0.371862 h 0.371859 0.371858 v 5.949746 5.94973 h 0.371858 0.371859 v -0.371862 -0.371854 h 0.371857 0.371859 v -0.371861 -0.371854 h 0.371858 0.371861 v -0.371861 -0.371862 h -0.371861 -0.371858 v -9.110529 -9.110529 h 0.371858 0.371861 v -0.37187 -0.371853 H 70.476789 70.104931 V 65.167879 64.796017 H 69.733072 69.361215 V 64.424156 64.052302 H 68.989356 68.617498 V 63.680441 63.308579 H 68.24564 67.873781 V 62.936726 62.564872 H 67.501923 67.130065 V 62.19301 61.821149 H 66.758206 66.386345 V 61.449287 61.077434 H 66.014488 65.642632 V 60.705572 60.33371 H 65.270771 64.898912 V 59.961857 59.590003 H 64.527055 64.155196 V 59.218142 58.84628 H 63.783338 63.41148 V 58.474427 58.102565 H 63.039621 62.667763 V 57.730703 57.35885 h -0.371858 -0.371858 v -0.371854 -0.371861 h -0.371858 -0.371861 v -0.371862 -0.371862 h -0.371859 -0.371858 v -0.371853 -0.371862 h -0.371858 -0.371858 v -0.371862 -0.371853 h -0.371858 -0.371859 v -0.371854 -0.371861 h 7.437167 7.437171 V 53.268404 52.896551 H 73.451658 73.0798 v -0.371864 -0.371858 h -0.371859 -0.371857 v -0.371854 -0.37186 h -0.37186 -0.37186 V 51.037256 50.665397 H 58.949178 46.305993 v 0.371859 0.371859 h 0.371856 0.37186 v 0.37186 0.371854 h 0.371858 0.371859 v 0.371858 0.371864 h 0.371858 0.371858 v 0.371853 0.371862 h 0.371859 0.371857 v 0.371861 0.371854 h 0.371859 0.371858 v 0.371853 0.371862 h 0.371859 0.371857 v 0.371862 0.371853 h 0.371861 0.371859 v 0.371862 0.371862 h 0.371855 0.371861 v 0.371861 0.371854 h 0.371859 0.371858 v 0.371853 0.371862 h 0.371858 0.371859 v 0.371862 0.371853 h 0.371857 0.371859 v 0.371862 0.371861 h 0.371858 0.371858 v 0.371854 0.371853 h 0.371858 0.371859 v 0.371862 0.371862 h 0.37186 0.371859 v 0.371853 0.371862 h 0.371856 0.37186 v 0.371861 0.371862 h 0.371859 0.371857 v 0.371854 0.371853 h 0.371859 0.371858 v 0.371862 0.371861 h 0.371859 0.371858 v 0.371854 0.371861 h 0.371858 0.371858 v 0.371862 0.371854 h 0.371858 0.371859 v 0.371853 0.37187 h 0.371861 0.371858 v 0.371853 0.371862 h 0.371858 0.371858 v 0.371854 0.371861 h 0.371858 0.371859 v 0.371862 0.371853 h 0.371858 0.371858 v 0.371854 0.371862 h 0.371859 0.371857 v 0.371861 0.371854 h 0.371859 0.371861 v 0.371861 0.371862 h 0.371856 0.371857 v 0.371853 0.371862 h 0.371861 0.371859 v -1.859292 -1.859292 h -0.371859 -0.371861 v -0.371861 -0.371854 h -0.371857 -0.371856 v -0.371862 -0.371853 h -0.371861 -0.371859 v -0.37187 -0.371853 H 64.527055 64.155196 V 65.167879 64.796017 H 63.783338 63.41148 V 64.424156 64.052302 H 63.039621 62.667763 V 63.680441 63.308579 H 62.295905 61.924047 V 62.936726 62.564872 H 61.552189 61.180328 V 62.19301 61.821149 H 60.808469 60.436611 V 61.449287 61.077434 H 60.064753 59.692895 V 60.705572 60.33371 H 59.321037 58.949178 V 59.961857 59.590003 H 58.57732 58.205461 V 59.218142 58.84628 h -0.371857 -0.371859 v -0.371853 -0.371862 h -0.37186 -0.371856 V 57.730703 57.35885 H 56.34617 55.97431 v -0.371854 -0.371861 h -0.371859 -0.371858 v -0.371862 -0.371862 h -0.371858 -0.371858 v -0.743715 -0.743715 h 1.487433 1.487435 V 54.19805 54.012127 h -0.37186 -0.371856 V 53.640266 53.268404 H 56.34617 55.97431 v -0.557789 -0.557786 h 4.090443 4.090443 v 0.371858 0.371864 h -3.718585 -3.718582 v 0.185922 0.185931 h 0.371856 0.37186 v 0.371862 0.371861 h 0.371859 0.371857 v 0.371854 0.371853 h 0.371859 0.371858 v 0.371862 0.371862 h 0.371859 0.371858 v 0.371853 0.371862 h 0.371858 0.371858 v 0.371862 0.371861 H 60.064753 59.692895 V 56.615135 56.243273 H 59.321037 58.949178 V 55.871411 55.499558 H 58.57732 58.205461 v -0.185931 -0.185931 h -1.487432 -1.487436 v 0.371862 0.371853 h 0.371858 0.371859 v 0.371862 0.371862 h 0.37186 0.371859 v 0.371861 0.371854 h 0.371856 0.37186 v 0.371853 0.371862 h 0.371859 0.371857 v 0.371862 0.371853 h 0.371859 0.371858 v 0.371862 0.371861 h 0.371859 0.371858 v 0.371854 0.371853 h 0.371858 0.371858 v 0.371862 0.371862 h 0.371858 0.371859 v 0.371853 0.371862 h 0.371861 0.371858 v 0.371861 0.371862 h 0.371858 0.371858 v 0.371854 0.371853 h 0.371858 0.371859 v 0.371862 0.371861 h 0.371858 0.371858 v 0.371854 0.371861 h 0.371859 0.371857 v 0.371862 0.371854 h 0.371859 0.371861 v 0.371853 0.37187 h 0.371856 0.371857 v 0.371853 0.371862 h 0.371861 0.371859 v 0.371854 0.371861 h 0.371858 0.371858 V 70.373893 72.9769 H 67.501923 67.130065 V 72.605047 72.233185 H 66.758206 66.386345 V 71.861324 71.48947 H 66.014488 65.642632 V 71.117608 70.745755 H 65.270771 64.898912 V 70.373893 70.002032 H 64.527055 64.155196 V 69.630178 69.258317 H 63.783338 63.41148 v -0.371862 -0.371854 h -0.371859 -0.371858 v -0.371853 -0.371862 h -0.371858 -0.371858 v -0.371861 -0.371854 h -0.371858 -0.371861 v -0.371862 -0.371853 h -0.371859 -0.371858 v -0.37187 -0.371853 H 60.064753 59.692895 V 65.167879 64.796017 H 59.321037 58.949178 V 64.424156 64.052302 H 58.57732 58.205461 v -0.371861 -0.371862 h -0.371857 -0.371859 v -0.371853 -0.371854 h -0.37186 -0.371856 V 62.19301 61.821149 H 56.34617 55.97431 V 61.449287 61.077434 H 55.602451 55.230593 V 60.705572 60.33371 H 54.858735 54.486877 V 59.961857 59.590003 H 54.115018 53.743161 V 59.218142 58.84628 H 53.371302 52.999444 V 58.474427 58.102565 H 52.627586 52.255727 V 57.730703 57.35885 h -0.371861 -0.371855 v -0.371854 -0.371861 h -0.371859 -0.371861 v -0.371862 -0.371862 h -0.371857 -0.371859 v -0.371853 -0.371862 h -0.371858 -0.371859 v -0.371862 -0.371853 h -0.371857 -0.371859 v -0.371854 -0.371861 h -0.371858 -0.371858 v -0.371862 -0.371853 h -0.371859 -0.371858 v -0.371864 -0.371858 h -0.37186 -0.371856 v -0.371854 -0.37186 h -0.371861 -0.371858 v -0.371859 -0.371859 h -0.371859 -0.371858 v -0.371858 -0.37186 h 13.386904 13.386903 v 0.37186 0.371858 h 0.37186 0.37186 v 0.371859 0.371859 h 0.371857 0.371859 v 0.37186 0.371854 h 0.371858 0.371858 v 0.371858 0.371864 h 0.371858 0.371859 v 0.371853 0.371862 h 1.115574 1.115576 v 0.371861 0.371854 h 0.371861 0.371857 v 0.371853 0.371862 h 0.371858 0.371859 v 0.371862 0.371853 h 0.371858 0.371859 v 7.251245 7.251237 h 0.371857 0.371859 v -0.371861 -0.371854 h 0.371858 0.371858 v -0.371861 -0.371862 h 0.371859 0.371857 v -0.371854 -0.371853 h -0.371857 -0.371859 v -7.99496 -7.994959 h 0.371859 0.371857 v 7.994959 7.99496 h 0.371862 0.371855 v -0.371862 -0.371861 h 0.371861 0.371858 V 67.027171 66.655309 H 82.376261 82.0044 v -7.251237 -7.251243 h 1.487435 1.487436 v 6.135667 6.13566 h -0.37186 -0.371859 v 0.371861 0.371862 h 0.371859 0.37186 v 0.371854 0.371853 h -0.37186 -0.371859 v 0.37187 0.371853 h 0.371859 0.37186 v 0.371862 0.371854 h -0.37186 -0.371859 v 0.371861 0.371862 h 0.371859 0.37186 v 0.371853 0.371854 h -0.37186 -0.371859 v 0.371862 0.371861 h 0.371859 0.37186 v 4.462299 4.462299 h -0.37186 -0.371859 v -4.462299 -4.462299 h -0.371857 -0.37186 v 0.371854 0.371861 h -0.371857 -0.371859 v 0.371862 0.371853 h 0.371859 0.371857 v 2.788938 2.788938 h -0.371857 -0.371859 v 0.371862 0.371862 H 82.376261 82.0044 v 0.371853 0.371862 h -0.371855 -0.371862 v 0.371853 0.371862 h -0.371857 -0.371859 v 0.371862 0.371853 h 0.371859 0.371857 v 0.743715 0.743724 h -0.371857 -0.371859 v 0.371853 0.371862 h -0.371858 -0.371858 v 0.371862 0.371853 h -0.371859 -0.371857 v 0.371862 0.371861 h -0.371859 -0.371858 v 0.371854 0.371853 h -0.371859 -0.371858 v 0.371862 0.371862 h -0.371857 -0.371861 v 0.371861 0.371854 h -0.371856 -0.371861 v 0.371861 0.371854 h -0.371859 -0.371858 v 0.371862 0.371853 h -0.371858 -0.371858 v 0.371862 0.371861 h -0.371859 -0.371858 v 0.371854 0.371862 H 73.451658 73.0798 v 0.371861 0.371862 h -0.371859 -0.371857 v 0.371857 0.371853 h -0.37186 -0.37186 v 0.371862 0.371862 H 71.220508 70.84865 v 0.371853 0.371862 h -0.371861 -0.371858 v 0.371861 0.371854 h -0.371859 -0.371857 v 0.371853 0.371862 h -0.371859 -0.371858 v 0.371862 0.371853 H 68.24564 67.873781 v 0.371862 0.371861 h -0.371858 -0.371858 v -3.160799 -3.160803 h 0.371858 0.371858 v 2.417088 2.417076 h 0.371859 0.371858 V 92.6854 92.313547 h 0.371858 0.371859 v -0.371854 -0.371861 h 0.371857 0.371859 V 91.19797 90.826117 h 0.371858 0.371861 v -0.371862 -0.371862 h 0.371858 0.371856 V 89.71054 89.338683 h 0.37186 0.37186 V 88.966821 88.59496 h 0.371857 0.371859 v -0.371862 -0.371854 h 0.371858 0.371858 v -0.371861 -0.371862 h 0.371858 0.371859 v -0.371853 -0.371862 h 0.371858 0.371858 v -0.371854 -0.371861 h 0.371858 0.371859 v -0.371854 -0.371861 h 0.371861 0.371856 v -0.371862 -0.371862 h 0.371861 0.371857 v -0.371853 -0.371854 h 0.371858 0.371859 v -0.371861 -0.371862 h 0.371858 0.371859 v -0.371853 -0.371862 h 0.371857 0.371859 v -0.371862 -0.371853 h 0.371858 0.371858 v -0.743724 -0.743715 h -0.371858 -0.371858 v 0.371862 0.371853 h -0.371859 -0.371857 v 0.37187 0.371854 h -0.371859 -0.371858 v 0.371853 0.371862 h -0.371859 -0.371858 v 0.371862 0.371853 h -0.371857 -0.371861 v 0.371862 0.371861 h -0.371856 -0.371861 v 0.371854 0.371853 h -0.371859 -0.371858 v 0.371862 0.371862 h -0.371858 -0.371858 v 0.371861 0.371854 h -0.371859 -0.371858 v 0.371861 0.371854 H 73.451658 73.0798 v 0.371862 0.371853 h -0.371859 -0.371857 v 0.371862 0.371861 h -0.37186 -0.37186 v 0.371854 0.371862 H 71.220508 70.84865 v 0.371861 0.371862 h -0.371861 -0.371858 v 0.371857 0.371853 h -0.371859 -0.371857 v 0.371862 0.371862 H 68.989356 68.617498 V 88.78089 86.735668 H 68.24564 67.873781 v -5.206023 -5.206014 h -0.371858 -0.371858 v 0.371853 0.371862 h -0.371859 -0.371861 v 0.371862 0.371853 h -0.371857 -0.371856 v 0.371862 0.371853 h -0.371861 -0.371859 v 0.371862 0.371862 h -0.371857 -0.371859 v 0.371853 0.371862 H 63.783338 63.41148 v 0.371853 0.37187 h -0.371859 -0.371858 v 2.231146 2.231153 h 0.371858 0.371859 v -0.371861 -0.371862 h 0.371858 0.371858 v -0.371862 -0.371853 h 0.371859 0.371857 v -0.929646 -0.929646 h 0.371859 0.371861 v 6.321591 6.321602 z m 5.949737,-10.040186 h 0.371856 v -0.371862 -0.371853 h 0.37186 0.37186 v -0.371854 -0.371861 h 0.371857 0.371859 v -0.371862 -0.371853 h 0.371858 0.371858 v -0.371862 -0.371862 h 0.371858 0.371859 v -0.371853 -0.371854 h 0.371858 0.371858 v -0.37187 -0.371853 h 0.371858 0.371859 V 79.670353 79.2985 h 0.371861 0.371856 v -0.371862 -0.371862 h 0.371861 0.371857 v -0.371853 -0.371862 h 0.371858 0.371859 v -0.371853 -0.371862 h 0.371858 0.371859 v -0.371862 -0.371853 h 0.371857 0.371859 v -0.371862 -0.371853 h 0.371858 0.371858 v -0.371862 -0.371862 h 0.371859 0.371857 V 74.464331 74.092477 H 81.632545 82.0044 V 72.9769 71.861324 h 0.371861 0.371858 V 71.48947 71.117608 H 82.376261 82.0044 v -0.371853 -0.371862 h 0.371861 0.371858 v -0.371861 -0.371854 h 0.371859 0.371857 v -0.371861 -0.371862 h 0.37186 0.371857 v -0.371854 -0.371853 h -0.371857 -0.37186 v -0.371862 -0.371861 h 0.37186 0.371857 v -0.371854 -0.371862 h -0.371857 -0.37186 v -0.371853 -0.37187 h 0.37186 0.371857 v -0.371853 -0.371854 h -0.371857 -0.37186 v 0.371854 0.371853 h -0.371857 -0.371859 v 0.37187 0.371853 h 0.371859 0.371857 v 0.371862 0.371854 h -0.371857 -0.371859 v 0.371861 0.371862 H 82.376261 82.0044 v 0.371853 0.371854 h -0.371855 -0.371862 v 0.371862 0.371861 h -0.371857 -0.371859 v 0.371854 0.371861 h -0.371858 -0.371858 v 0.371862 0.371853 h -0.371859 -0.371857 v -0.371853 -0.371862 h -0.371859 -0.371858 v 0.371862 0.371853 h -0.371859 -0.371858 v 0.371862 0.371854 h -0.371857 -0.371861 v 0.371861 0.371862 H 76.426527 76.054666 V 65.725663 58.84628 h 0.371861 0.371856 v -0.371853 -0.371862 h 0.371861 0.371857 V 57.730703 57.35885 h 0.371858 0.371859 v -0.371854 -0.371861 h -1.487435 -1.487434 v 9.668321 9.668313 h 0.371858 0.371859 v 0.185931 0.185931 h 0.371861 0.371856 v 0.371853 0.371862 h -0.371856 -0.371861 v 0.929646 0.929646 h -0.371859 -0.371858 v -0.743715 -0.743715 h -0.371858 -0.371858 v 0.371853 0.371862 H 74.195374 73.823516 V 74.836192 71.48947 H 73.451658 73.0798 v -0.371862 -0.371853 h 0.371858 0.371858 v -0.371862 -0.371861 h 0.371858 0.371859 v 3.34673 3.346722 h 0.371858 0.371858 v -0.18593 -0.185923 h -0.185927 -0.185931 v -3.1608 -3.160799 h -0.185928 -0.18593 V 69.630178 69.258317 H 74.195374 73.823516 V 68.886455 68.514601 H 73.451658 73.0798 v -0.371853 -0.371862 h -0.371859 -0.371857 v -0.371861 -0.371854 h -0.37186 -0.37186 V 66.655309 66.283456 H 71.220508 70.84865 v 3.346722 3.346722 h -0.185931 -0.18593 v 2.045223 2.045223 h 0.18593 0.185931 v 3.718592 3.718576 z m 1.487433,-2.603007 h -0.371857 v -2.788938 -2.788938 h -0.37186 -0.37186 v 0.371853 0.371862 H 71.220508 70.84865 V 75.022123 72.9769 h 0.371858 0.371856 v -0.371853 -0.371862 h 0.37186 0.37186 V 71.861324 71.48947 h 0.371857 0.371859 v 0.371854 0.371861 h -0.371859 -0.371857 v 0.371862 0.371853 h -0.37186 -0.37186 v 1.301508 1.301508 h 0.37186 0.37186 V 74.65027 73.720624 h 0.371857 0.371859 v 3.346722 3.346722 h 0.371858 0.371858 v -0.371853 -0.371862 h 0.371858 0.371859 V 79.2985 78.926638 h 0.371858 0.371858 v 0.371862 0.371853 h -0.371858 -0.371858 v 0.371862 0.371853 h -0.371859 -0.371858 v 0.37187 0.371854 H 73.451658 73.0798 v 0.371853 0.371862 z m 4.462303,-4.090446 h -0.371861 v -0.371853 -0.371862 h 0.371861 0.371857 v -0.371862 -0.371853 h -0.371857 -0.371861 v -0.371862 -0.371853 h -0.371856 -0.371861 v -0.371862 -0.371862 h 0.371861 0.371856 v -0.371861 -0.371854 h -0.371856 -0.371861 v -0.371853 -0.371862 h 0.371861 0.371856 V 72.9769 72.605047 h 0.371861 0.371857 v -0.371862 -0.371861 h 0.371858 0.371859 V 71.48947 71.117608 h 0.371858 0.371859 v 0.371862 0.371854 h 0.371857 0.371859 V 71.48947 71.117608 h 0.371858 0.371858 v -0.371853 -0.371862 h 0.371859 0.371857 v -0.371861 -0.371854 h 0.371862 0.371855 v -0.371861 -0.371862 h 0.371861 0.371858 v -0.371854 -0.371853 h 0.371859 0.371857 v 0.371853 0.371854 h -0.371857 -0.371859 v 0.371862 0.371861 H 82.376261 82.0044 v 0.371854 0.371861 h -0.371855 -0.371862 v 0.371862 0.371853 h 0.371862 0.371855 v 0.371862 0.371854 h -0.371855 -0.371862 v 0.371861 0.371862 h -0.371857 -0.371859 v 0.371853 0.371862 h 0.371859 0.371857 v 0.371862 0.371853 h -0.371857 -0.371859 v 0.371854 0.371861 h -0.371858 -0.371858 v 0.371862 0.371862 h -0.371859 -0.371857 v 0.371853 0.371862 h -0.371859 -0.371858 v 0.371853 0.371862 h -0.371859 -0.371858 v 0.371862 0.371853 z m 0.743715,-1.48743 h 0.371859 v -0.371862 -0.371853 h 0.371858 0.371859 v -0.371862 -0.371862 h 0.371857 0.371859 v -0.371861 -0.371854 h 0.371858 0.371858 V 73.720624 73.348762 H 80.145109 79.773251 V 72.9769 72.605047 h 0.371858 0.371858 v -0.371862 -0.371861 h 0.371859 0.371857 V 71.48947 71.117608 h -0.371857 -0.371859 v 0.371862 0.371854 h -0.371858 -0.371858 v 0.371861 0.371862 h -0.371859 -0.371857 v -0.371862 -0.371861 h -0.371859 -0.371858 v 0.371861 0.371862 h -0.371859 -0.371858 v 0.371853 0.371862 h -0.371857 -0.371861 v 0.371862 0.371853 h 0.371861 0.371857 v 0.371854 0.371861 h -0.371857 -0.371861 v 0.371862 0.371862 h 0.371861 0.371857 v 0.371853 0.371862 z m 0,-0.743715 h -0.371858 v -0.371862 -0.371862 h 0.371858 0.371859 v -0.371861 -0.371854 h -0.371859 -0.371858 v -0.371853 -0.371862 h 0.371858 0.371859 V 72.9769 72.605047 h 0.371858 0.371859 v 0.371853 0.371862 h 0.371857 0.371859 v 0.371862 0.371853 h -0.371859 -0.371857 v 0.371854 0.371861 h -0.371859 -0.371858 v 0.371862 0.371862 z m 0.743717,-1.487439 h 0.371859 v -0.371853 -0.371862 h -0.371859 -0.371858 v 0.371862 0.371853 z m -4.462302,-8.552744 h 0.371859 V 61.077434 56.615135 H 73.823516 73.0798 v 0.371861 0.371854 h -0.371859 -0.371857 v -0.371854 -0.371861 h -2.974869 -2.97487 v 0.743715 0.743715 h 0.371861 0.371859 v 0.371862 0.371853 h 0.371858 0.371858 v 0.371862 0.371861 h 0.371859 0.371858 v 0.371854 0.371853 h 0.371858 0.371859 v 0.371862 0.371862 h 0.371857 0.371859 v 0.371853 0.371862 h 0.371858 0.371861 v 0.371861 0.371862 h 0.371858 0.371856 v 0.371854 0.371853 h 0.37186 0.37186 v 0.371862 0.371861 h 0.371857 0.371859 v 0.371854 0.371861 h 0.371858 0.371858 v 0.371862 0.371854 z M 70.476789,61.077434 H 70.104931 V 59.961857 58.84628 h 0.371858 0.371861 v -0.371853 -0.371862 h 0.371858 0.371856 V 57.730703 57.35885 h 0.37186 0.37186 v 0.371853 0.371862 h -0.37186 -0.37186 v 0.371862 0.371853 H 71.220508 70.84865 v 1.115577 1.115577 z M 103.20033,94.5447 h -0.37185 v -0.371861 -0.371862 h -0.37186 -0.37186 v -0.371853 -0.371862 h -0.37186 -0.37186 V 92.6854 92.313547 h -0.37186 -0.37186 v -0.371854 -0.371861 h -0.37186 -0.371854 V 91.19797 90.826117 H 99.481753 99.109891 V 90.454255 90.082393 H 98.738029 98.366176 V 89.71054 89.338683 H 97.994314 97.622453 V 88.966821 88.59496 h -0.371854 -0.371853 v -0.371862 -0.371854 h -0.37187 -0.371854 V 87.479383 87.107521 H 95.763169 95.391307 V 86.735668 86.363806 H 95.019445 94.647584 V 85.991952 85.620091 H 94.27573 93.903877 V 85.248237 84.876376 H 93.532015 93.160154 V 84.504514 84.132652 H 92.7883 92.416438 V 83.760799 83.388945 H 92.044577 91.672723 V 83.017084 82.645222 H 91.300862 90.929 V 82.273369 81.901507 H 90.557146 90.185285 V 81.157792 80.414068 H 90.557146 90.929 V 80.042215 79.670353 H 90.557146 90.185285 V 79.2985 78.926638 H 89.813431 89.44157 V 78.554776 78.182923 H 89.069708 88.697854 V 77.811061 77.439208 H 88.326001 87.954139 V 77.067346 76.695484 H 87.582278 87.21042 v -0.371853 -0.371862 h -0.371859 -0.371859 v -4.64823 -4.64823 h 0.371859 0.371859 v -0.371853 -0.37187 h -0.371859 -0.371859 v -0.371853 -0.371854 h 0.371859 0.371859 v -0.371862 -0.371861 h -0.371859 -0.371859 v -0.371854 -0.371861 h 0.371859 0.371859 V 63.308579 62.936726 H 86.838561 86.466702 V 62.564872 62.19301 h 0.371859 0.371859 V 61.821149 61.449287 H 86.838561 86.466702 V 54.569912 47.69053 h 1.487437 1.487431 v 7.994959 7.994952 h -0.371862 -0.371854 v 0.371861 0.371854 h 0.371854 0.371862 v 0.371861 0.371862 h 0.371861 0.371854 V 53.640266 42.112653 H 88.697854 87.21042 v 0.743717 0.743717 H 86.838561 86.466702 V 42.484512 41.368937 H 88.697854 90.929 v 11.899467 11.899475 h -0.371854 -0.371861 v 0.371854 0.371853 H 90.557146 90.929 v 0.37187 0.371853 h 0.371862 0.371861 v 0.371862 0.371854 h 0.371854 0.371861 v -5.763807 -5.763807 h 0.371862 0.371854 v -0.371853 -0.371862 h 0.371861 0.371862 v -0.371862 -0.371853 h 0.371853 0.371854 v -0.371854 -0.371861 h 0.371861 0.371862 v 0.371861 0.371854 h 0.371862 0.371853 v -0.371854 -0.371861 h 0.371854 0.37187 v -0.371862 -0.371853 h 0.371853 0.371854 v -0.371864 -0.371858 h 0.371861 0.371862 v -0.371854 -0.37186 h 0.371853 0.371862 v -0.371859 -0.371859 h 0.371862 0.371853 v -0.371858 -0.37186 h 0.371854 0.37186 v 0.37186 0.371858 h 0.37186 0.37186 v -0.371858 -0.37186 h 0.37186 0.37186 v 0.37186 0.371858 h 0.37186 0.37186 v -0.371858 -0.37186 h 0.37185 0.37186 v 0.37186 0.371858 h -0.37186 -0.37185 v 0.371859 0.371859 h -0.37186 -0.37186 v 0.37186 0.371854 h -0.37186 -0.37186 v 0.371858 0.371864 h -0.37186 -0.37186 v 0.371853 0.371862 h 2.97487 2.97487 v 0.371861 0.371854 h -0.37186 -0.37186 v 0.371853 0.371862 h -0.37186 -0.37185 v 0.371862 0.371853 h -0.37186 -0.37186 v 0.371862 0.371862 h -2.23115 -2.231154 v 0.371861 0.371854 h 0.371854 0.37186 v 0.371853 0.371862 h 0.37186 0.37186 v 1.115577 1.115568 h 0.37186 0.37186 v -0.371853 -0.371854 h 0.37186 0.37186 V 59.218142 58.84628 h 0.37185 0.37186 v -0.371853 -0.371862 h 0.37186 0.37186 V 57.730703 57.35885 h 0.37186 0.37186 v -0.371854 -0.371861 h 0.37185 0.37186 v -0.371862 -0.371862 h 0.37186 0.37186 v -0.371853 -0.371862 h 0.37186 0.37185 v -0.371862 -0.371853 h 0.37187 0.37186 v -0.371854 -0.371861 h 2.23114 2.23116 v 0.371861 0.371854 h -0.37187 -0.37186 v 0.371853 0.371862 h -0.37185 -0.37186 v 0.371862 0.371853 h -0.37186 -0.37186 v 0.371862 0.371862 h -0.37185 -0.37186 v 0.371861 0.371854 h -0.37186 -0.37187 v 0.371853 0.371862 h -0.37185 -0.37185 v 0.371862 0.371853 h -0.37186 -0.37187 v 0.371862 0.371861 h -0.37185 -0.37186 v 0.371854 0.371853 h -0.37186 -0.37186 v 0.371862 0.371862 h -0.37186 -0.37185 v 0.371853 0.371862 h -0.37186 -0.37186 v 0.371861 0.371862 h -0.37186 -0.37186 v 0.371854 0.371853 h -0.37186 -0.37185 v 0.371862 0.371861 h -0.37186 -0.37186 v 0.371854 0.371861 h -0.37186 -0.37186 v 0.371862 0.371854 h -0.37186 -0.37186 v 0.371853 0.37187 h 0.37186 0.37186 v 3.718576 3.718592 h -0.37186 -0.37186 v 0.371853 0.371854 h 0.37186 0.37186 v 1.673369 1.673361 h -0.37186 -0.37186 v -0.371853 -0.371862 h -0.37186 -0.371854 v -0.371862 -0.371853 h -0.371853 -0.371862 v 2.974869 2.974869 h -0.371862 -0.371853 v -0.371862 -0.371862 h -0.371862 -0.371861 v -0.371853 -0.371854 h -0.371854 -0.371853 v -0.37187 -0.371853 h -0.37187 -0.371854 V 79.670353 79.2985 h -0.371853 -0.371862 v -0.371862 -0.371862 h -0.371862 -0.371861 v -1.48743 -1.48743 h 0.371861 0.371862 v 0.371853 0.371862 h 0.371862 0.371853 v 0.371853 0.371862 h 0.371854 0.37187 v -3.1608 -3.160791 h 0.371853 0.371854 v 0.371853 0.371862 h 0.371861 0.371862 v 0.371854 0.371861 h 0.371853 0.371862 v 0.371862 0.371853 h 0.371862 0.371853 v 0.371862 0.371862 h 0.371854 0.37186 v -3.718592 -3.718576 h -0.37186 -0.371854 v 0.371853 0.371862 h -0.371853 -0.371862 v 0.371854 0.371861 h -0.371862 -0.371853 v 0.371862 0.371853 h -0.371862 -0.371861 v 0.371854 0.371862 h -0.371854 -0.371853 v -2.231146 -2.231154 h 0.371853 0.371854 v -0.371861 -0.371854 h -0.371854 -0.371853 v -4.090445 -4.090446 h -0.37187 -0.371854 v 0.371862 0.371862 h -0.371853 -0.371862 v -0.371862 -0.371862 h -0.371862 -0.371861 v 0.371862 0.371862 H 94.27573 93.903877 v -0.371862 -0.371862 h -0.371862 -0.371861 v 0.743724 0.743715 h 0.371861 0.371862 v 0.371853 0.371862 h 0.371853 0.371854 v 0.371862 0.371853 h 0.371861 0.371862 v 5.391953 5.391945 h -0.371862 -0.371861 v 0.371854 0.371861 h 0.371861 0.371862 v 0.371862 0.371853 h -0.371862 -0.371861 v 0.371862 0.371854 h 0.371861 0.371862 v 0.371861 0.371862 h -0.371862 -0.371861 v 0.371853 0.371862 h 0.371861 0.371862 v 0.371862 0.371853 H 95.019445 94.647584 V 73.720624 73.348762 H 94.27573 93.903877 V 72.9769 72.605047 H 93.532015 93.160154 V 72.233185 71.861324 H 92.7883 92.416438 V 71.48947 71.117608 H 92.044577 91.672723 V 70.745755 70.373893 H 91.300862 90.929 v 1.859292 1.859292 H 90.557146 90.185285 V 72.233185 70.373893 H 90.557146 90.929 V 70.002032 69.630178 H 90.557146 90.185285 V 69.258317 68.886455 H 89.813431 89.44157 v 2.974869 2.974868 h 0.371861 0.371854 v 0.371862 0.371862 H 90.557146 90.929 v 0.371853 0.371862 h 0.371862 0.371861 v 0.371853 0.371862 h 0.371854 0.371861 v 0.371862 0.371853 h 0.371862 0.371854 v 0.371862 0.371853 h 0.371861 0.371862 v 0.371862 0.371862 h 0.371853 0.371854 v 0.371853 0.371862 h 0.371861 0.371862 v 0.371853 0.37187 h 0.371862 0.371853 v 0.371854 0.371853 h 0.371854 0.37187 v 0.371862 0.371862 h 0.371853 0.371854 v 0.371853 0.371862 h 0.371861 0.371862 v 0.371861 0.371854 h 0.371853 0.371862 v 0.371853 0.371862 h 0.371862 0.371853 v 0.371862 0.371861 h 0.371854 0.37186 v 0.371854 0.371861 h 0.37186 0.37186 v 0.371854 0.371862 h 0.37186 0.37186 v 2.045222 2.045227 h -0.37186 -0.37186 v -0.371862 -0.371862 h -0.37186 -0.37186 V 89.71054 89.338683 h -0.37186 -0.371854 V 88.966821 88.59496 h -0.371853 -0.371862 v -0.371862 -0.371854 h -0.371862 -0.371853 v -0.371861 -0.371862 h -0.371862 -0.371861 v -0.371853 -0.371862 h -0.371854 -0.371853 v -0.371854 -0.371861 h -0.37187 -0.371854 V 85.248237 84.876376 H 95.763169 95.391307 V 84.504514 84.132652 H 95.019445 94.647584 V 83.760799 83.388945 H 94.27573 93.903877 V 83.017084 82.645222 H 93.532015 93.160154 V 82.273369 81.901507 H 92.7883 92.416438 v -0.371862 -0.371853 h -0.371861 -0.371854 v -0.371854 -0.37187 H 91.300862 90.929 v 0.743724 0.743715 h 0.371862 0.371861 v 0.371862 0.371853 h 0.371854 0.371861 v 0.371862 0.371861 h 0.371862 0.371854 v 0.371854 0.371853 h 0.371861 0.371862 v 0.371862 0.371862 h 0.371853 0.371854 v 0.371861 0.371854 h 0.371861 0.371862 v 0.371861 0.371854 h 0.371862 0.371853 v 0.371862 0.371853 h 0.371854 0.37187 v 0.371862 0.371861 h 0.371853 0.371854 v 0.371854 0.371862 h 0.371861 0.371862 v 0.371861 0.371862 h 0.371853 0.371862 v 0.371857 0.371853 h 0.371862 0.371853 v 0.371862 0.371862 h 0.371854 0.37186 v 0.371853 0.371862 h 0.37186 0.37186 v 0.371861 0.371854 h 0.37186 0.37186 v 0.371853 0.371862 h 0.37186 0.37186 v -2.417076 -2.417088 h 0.37185 0.37186 V 91.383901 94.5447 Z M 97.994314,80.785938 h 0.371862 v -2.974877 -2.974869 h 0.371853 0.371862 v 0.371862 0.371862 h 0.371862 0.371853 v 0.371853 0.371862 h 0.371854 0.37186 v -0.929646 -0.929654 h -0.37186 -0.371854 V 74.092477 73.720624 H 99.481753 99.109891 V 73.348762 72.9769 h -0.371862 -0.371853 v -0.371853 -0.371862 h -0.371862 -0.371861 v 3.1608 3.160791 h -0.371854 -0.371853 v -0.371853 -0.371862 h -0.37187 -0.371854 v -0.371853 -0.371862 h -0.371853 -0.371862 v 0.743715 0.743715 h 0.371862 0.371853 v 0.371862 0.371862 h 0.371854 0.37187 v 0.371853 0.371862 h 0.371853 0.371854 v 0.371853 0.37187 z M 94.27573,72.605047 h 0.371854 V 72.233185 71.861324 H 94.27573 93.903877 V 71.48947 71.117608 h 0.371853 0.371854 V 70.745755 70.373893 H 94.27573 93.903877 v -0.371861 -0.371854 h 0.371853 0.371854 V 69.258317 68.886455 H 94.27573 93.903877 V 68.514601 68.142748 H 93.532015 93.160154 V 67.770886 67.399025 H 92.7883 92.416438 v 0.371861 0.371862 H 92.044577 91.672723 V 67.770886 67.399025 H 91.300862 90.929 v -0.371854 -0.371862 h -0.371854 -0.371861 v -0.371853 -0.37187 H 89.813431 89.44157 v -0.371853 -0.371854 h -0.371862 -0.371854 v -0.371862 -0.371861 h -0.371853 -0.371862 v -0.371854 -0.371861 h 0.371862 0.371853 V 63.308579 62.936726 H 88.326001 87.954139 V 62.564872 62.19301 H 87.582278 87.21042 v 0.371862 0.371854 h 0.371858 0.371861 v 0.371853 0.371862 H 87.582278 87.21042 v 0.371861 0.371854 h 0.371858 0.371861 v 0.371861 0.371862 H 87.582278 87.21042 v 0.371854 0.371853 h 0.371858 0.371861 v 0.37187 0.371853 H 87.582278 87.21042 v 0.371862 0.371854 h 0.371858 0.371861 v 0.371861 0.371862 h 0.371862 0.371853 v 0.371853 0.371854 h 0.371854 0.371862 v -0.371854 -0.371853 h 0.371861 0.371854 v 0.371853 0.371854 H 90.557146 90.929 v 0.371862 0.371861 h 0.371862 0.371861 v 0.371854 0.371861 h 0.371854 0.371861 v 0.371862 0.371853 h 0.371862 0.371854 v 0.371862 0.371854 h 0.371861 0.371862 v 0.371861 0.371862 z M 93.532015,71.117608 H 93.160154 V 70.745755 70.373893 H 92.7883 92.416438 V 70.002032 69.630178 H 92.044577 91.672723 V 69.258317 68.886455 H 91.300862 90.929 V 68.514601 68.142748 H 90.557146 90.185285 V 67.770886 67.399025 H 89.813431 89.44157 v 0.371861 0.371862 h -0.371862 -0.371854 v -0.371862 -0.371861 h -0.371853 -0.371862 v -0.371854 -0.371862 h 0.371862 0.371853 v -0.371853 -0.37187 h -0.371853 -0.371862 v -0.371853 -0.371854 h 0.371862 0.371853 v 0.371854 0.371853 h 0.371854 0.371862 v 0.37187 0.371853 h 0.371861 0.371854 v 0.371862 0.371854 H 90.557146 90.929 v 0.371861 0.371862 h 0.371862 0.371861 v 0.371853 0.371854 h 0.371854 0.371861 v -0.371854 -0.371853 h 0.371862 0.371854 v 0.371853 0.371854 h 0.371861 0.371862 v 0.371862 0.371861 h -0.371862 -0.371861 v 0.371854 0.371861 h 0.371861 0.371862 v 0.371862 0.371853 z M 92.7883,69.630178 h 0.371854 V 69.258317 68.886455 H 92.7883 92.416438 v 0.371862 0.371861 z m -3.718592,-2.231153 h 0.371862 v -0.371854 -0.371862 h -0.371862 -0.371854 v 0.371862 0.371854 z m 8.924606,-3.346723 h 0.371862 v -0.371861 -0.371862 h 0.371853 0.371862 v -0.371853 -0.371854 h 0.371862 0.371853 V 62.19301 61.821149 h 0.371854 0.37186 v -0.371862 -0.371853 h 0.37186 0.37186 V 60.705572 60.33371 h -0.37186 -0.37186 v -1.115568 -1.115577 h -0.37186 -0.371854 V 57.730703 57.35885 h -0.371853 -0.371862 v -0.371854 -0.371861 h -0.743715 -0.743723 v 3.718575 3.718592 z M 94.27573,55.871411 h 0.371854 v -0.371853 -0.371862 h 0.371861 0.371862 v 0.371862 0.371853 h 0.371862 0.371853 v -0.371853 -0.371862 h 0.371854 0.37187 v 0.371862 0.371853 h 0.371853 0.371854 v -0.371853 -0.371862 h 0.371861 0.371862 v -0.371862 -0.371853 h 0.371853 0.371862 v -0.371854 -0.371861 h 0.371862 0.371853 v -0.371862 -0.371853 h 0.371854 0.37186 v -0.371864 -0.371858 h 0.37186 0.37186 v -0.371854 -0.37186 h 0.37186 0.37186 v -0.371859 -0.371859 h -0.37186 -0.37186 v 0.371859 0.371859 h -0.37186 -0.37186 v -0.371859 -0.371859 h -0.37186 -0.371854 v 0.371859 0.371859 h -0.371853 -0.371862 v 0.37186 0.371854 h -0.371862 -0.371853 v 0.371858 0.371864 h -0.371862 -0.371861 v 0.371853 0.371862 h -0.371854 -0.371853 v 0.371861 0.371854 h -0.37187 -0.371854 v 0.371853 0.371862 h -0.371853 -0.371862 v -0.371862 -0.371853 h -0.371862 -0.371861 v 0.371853 0.371862 H 94.27573 93.903877 v 0.371862 0.371853 z m 2.974869,-0.743715 h -0.371853 v -0.371862 -0.371853 h 0.371853 0.371854 v -0.371854 -0.371861 h 0.371861 0.371862 v -0.371862 -0.371853 h 0.371853 0.371862 v -0.371864 -0.371858 h 0.371862 0.371853 v -0.371854 -0.37186 h 0.371854 0.37186 v 0.37186 0.371854 h -0.37186 -0.371854 v 0.371858 0.371864 h -0.371853 -0.371862 v 0.371853 0.371862 h -0.371862 -0.371853 v 0.371861 0.371854 h -0.371862 -0.371861 v 0.371853 0.371862 z m 8.180881,38.673281 h -0.37185 v -4.834156 -4.834169 h 0.37185 0.37186 v 0.371862 0.371862 h 0.37186 0.37186 v 0.371861 0.371854 h 0.37186 0.37185 v 0.371861 0.371854 h 0.37187 0.37186 v 0.371862 0.371853 h 0.37185 0.37185 v -2.231145 -2.231154 h -0.37185 -0.37185 v -0.371853 -0.371862 h -0.37186 -0.37187 v -0.371862 -0.371853 h -0.37185 -0.37186 v -0.371854 -0.37187 h -0.37186 -0.37186 v -0.371853 -0.371862 h -0.37186 -0.37185 V 79.2985 78.926638 h -0.37186 -0.37186 v -0.371862 -0.371853 h -0.37186 -0.37186 v 4.276368 4.276377 h -0.37186 -0.37185 v -0.371862 -0.371854 h -0.37186 -0.37186 v -0.371861 -0.371854 h -0.37186 -0.37186 v -0.371861 -0.371862 h -0.37186 -0.37186 v -2.974869 -2.974869 h 0.37186 0.37186 v 2.974869 2.974869 h 0.37186 0.37186 v 0.371862 0.371861 h 0.37186 0.37186 v -4.276376 -4.276377 h 0.37185 0.37186 v 0.371862 0.371862 h 0.37186 0.37186 v 0.371853 0.371862 h 0.37186 0.37186 v 0.371853 0.371862 h 0.37185 0.37186 v 0.371862 0.371853 h 0.37186 0.37186 v 0.371862 0.371853 h 0.37186 0.37185 v 0.37187 0.371854 h 0.37187 0.37186 v 0.371853 0.371862 h 0.37185 0.37185 v 0.371862 0.371853 h 0.37187 0.37186 v 2.974869 2.974869 h -0.37186 -0.37187 v -0.371862 -0.371854 h -0.37185 -0.37185 v -0.371861 -0.371862 h -0.37186 -0.37187 v -0.371853 -0.371862 h -0.37185 -0.37186 v -0.371854 -0.371861 h -0.37186 -0.37186 v 4.090449 4.090437 z M 84.607411,88.223098 h -0.371859 v -3.904507 -3.904523 h 0.371859 0.37186 v 3.904523 3.904507 z M 103.20033,74.464331 h -0.37185 v -3.346723 -3.346722 h 0.37185 0.37186 v -0.371861 -0.371854 h 0.37186 0.37186 v -0.371862 -0.371853 h 0.37186 0.37186 v -0.37187 -0.371853 h 0.37185 0.37186 v -0.371854 -0.371862 h 0.37186 0.37186 v -0.371861 -0.371854 h 0.37186 0.37185 v -0.371861 -0.371862 h 0.37187 0.37186 v -0.371853 -0.371854 h 0.37185 0.37185 V 62.19301 61.821149 h 0.37187 0.37186 v -0.371862 -0.371853 h 0.37186 0.37185 V 60.705572 60.33371 h 0.37186 0.37186 v -0.371853 -0.371854 h 0.37186 0.37185 V 59.218142 58.84628 h 0.37186 0.37187 v -0.371853 -0.371862 h 0.37185 0.37186 V 57.730703 57.35885 h 0.37186 0.37186 v -0.371854 -0.371861 h 0.37185 0.37186 v -0.371862 -0.371862 h 0.37186 0.37186 v -0.371853 -0.371862 h 0.37186 0.37186 v -0.371862 -0.371853 h 0.37185 0.37187 v -0.371854 -0.371861 h 0.37185 0.37186 v -0.371862 -0.371853 h 0.37186 0.37186 v -0.371864 -0.371858 h 0.37186 0.37186 v -0.371854 -0.37186 h 0.37185 0.37186 v -0.371859 -0.371859 h 0.37186 0.37186 v -0.371858 -0.37186 h 3.34672 3.34673 v 0.37186 0.371858 h -0.37186 -0.37185 v 0.371859 0.371859 h -0.37186 -0.37186 v 0.37186 0.371854 h -0.37186 -0.37186 v 0.371858 0.371864 h -0.37185 -0.37187 v 0.371853 0.371862 h -0.37186 -0.37185 v 0.371861 0.371854 h -0.37186 -0.37186 v 0.371853 0.371862 h -0.37186 -0.37186 v 0.371862 0.371853 h -0.37185 -0.37187 v 0.371862 0.371862 h -0.37186 -0.37185 v 0.371861 0.371854 h -0.37186 -0.37186 v 0.371853 0.371862 h -0.37186 -0.37185 v 0.371862 0.371853 h -0.37186 -0.37186 v 0.371862 0.371861 h -0.37186 -0.37186 v 0.371854 0.371853 h -0.37186 -0.37185 v 0.371862 0.371862 h -0.37187 -0.37185 v 0.371853 0.371862 h -0.37186 -0.37186 v 0.371861 0.371862 h -0.37186 -0.37186 v 0.371854 0.371853 h -0.37186 -0.37185 v 0.371862 0.371861 h -0.37186 -0.37186 v 0.371854 0.371861 h -0.37186 -0.37185 v 0.371862 0.371854 h -0.37187 -0.37186 v 0.371853 0.37187 h -0.37185 -0.37186 v 0.371853 0.371862 h -0.37186 -0.37186 v 0.371854 0.371861 h -0.37185 -0.37186 v 0.371862 0.371853 h -0.37186 -0.37187 v 0.371854 0.371862 h -0.37185 -0.37185 v 0.371861 0.371854 h -0.37186 -0.37187 v 0.371861 0.371862 h -0.37185 -0.37186 v 0.371853 0.371862 h -0.37186 -0.37186 v 0.371854 0.371861 h -0.37186 -0.37185 v 0.371862 0.371853 h -0.37186 -0.37186 v 0.371862 0.371862 h -0.37186 -0.37186 v 0.371853 0.371854 z m 0.74372,-1.487431 h 0.37186 v -0.371853 -0.371862 h 0.37186 0.37186 V 71.861324 71.48947 h 0.37185 0.37186 v -0.371862 -0.371853 h 0.37186 0.37186 v -0.371862 -0.371861 h 0.37186 0.37185 v -0.371854 -0.371861 h 0.37187 0.37186 v -0.371862 -0.371854 h 0.37185 0.37185 v -0.371853 -0.371862 h 0.37187 0.37186 v -0.371861 -0.371854 h 0.37186 0.37185 v -0.371862 -0.371853 h 0.37186 0.37186 v -0.37187 -0.371853 h 0.37186 0.37185 v -0.371854 -0.371862 h 0.37186 0.37187 v -0.371861 -0.371854 h 0.37185 0.37186 v -0.371861 -0.371862 h 0.37186 0.37186 v -0.371853 -0.371854 h 0.37185 0.37186 V 62.19301 61.821149 h 0.37186 0.37186 v -0.371862 -0.371853 h 0.37186 0.37186 V 60.705572 60.33371 h 0.37185 0.37187 v -0.371853 -0.371854 h 0.37185 0.37186 V 59.218142 58.84628 h 0.37186 0.37186 v -0.371853 -0.371862 h 0.37186 0.37186 V 57.730703 57.35885 h 0.37185 0.37186 v -0.371854 -0.371861 h 0.37186 0.37186 v -0.371862 -0.371862 h 0.37185 0.37186 v -0.371853 -0.371862 h 0.37187 0.37185 v -0.371862 -0.371853 h 0.37186 0.37186 v -0.371854 -0.371861 h 0.37186 0.37186 v -0.371862 -0.371853 h 0.37185 0.37186 v -0.371864 -0.371858 h 0.37187 0.37185 v -0.371854 -0.37186 h 0.37186 0.37186 v -0.371859 -0.371859 h -2.60301 -2.60301 v 0.371859 0.371859 h -0.37186 -0.37186 v 0.37186 0.371854 h -0.37186 -0.37185 v 0.371858 0.371864 h -0.37186 -0.37186 v 0.371853 0.371862 h -0.37186 -0.37186 v 0.371861 0.371854 h -0.37186 -0.37185 v 0.371853 0.371862 h -0.37187 -0.37185 v 0.371862 0.371853 h -0.37186 -0.37186 v 0.371862 0.371862 h -0.37186 -0.37186 v 0.371861 0.371854 h -0.37186 -0.37185 v 0.371853 0.371862 h -0.37186 -0.37186 v 0.371862 0.371853 h -0.37186 -0.37185 v 0.371862 0.371861 h -0.37187 -0.37186 v 0.371854 0.371853 h -0.37185 -0.37186 v 0.371862 0.371862 h -0.37186 -0.37186 v 0.371853 0.371862 h -0.37185 -0.37186 v 0.371861 0.371862 h -0.37186 -0.37187 v 0.371854 0.371853 h -0.37185 -0.37185 v 0.371862 0.371861 h -0.37186 -0.37187 v 0.371854 0.371861 h -0.37185 -0.37186 v 0.371862 0.371854 h -0.37186 -0.37186 v 0.371853 0.37187 h -0.37186 -0.37185 v 0.371853 0.371862 h -0.37186 -0.37186 v 0.371854 0.371861 h -0.37186 -0.37186 v 2.603007 2.603007 z m 7.43717,-15.989904 h -0.37186 v -0.371861 -0.371862 h 0.37186 0.37185 v -0.371862 -0.371853 h 0.37186 0.37187 v -0.371862 -0.371862 h 0.37185 0.37186 v -0.371853 -0.371854 h 0.37186 0.37186 v -0.371861 -0.371862 h 0.37185 0.37186 v -0.185931 -0.185922 h -3.71858 -3.71859 v -0.371864 -0.371858 h 4.4623 4.46231 v -0.371854 -0.37186 h 0.37185 0.37187 v -0.371859 -0.371859 h -6.3216 -6.32159 v -0.371858 -0.37186 h 7.06531 7.06531 v 0.37186 0.371858 h -0.37186 -0.37186 v 0.371859 0.371859 h -0.37186 -0.37185 v 0.37186 0.371854 h -0.37187 -0.37185 v 0.371858 0.371864 h -0.37186 -0.37186 v 0.185922 0.185931 h -0.37186 -0.37186 v 0.371862 0.371861 h -0.37186 -0.37185 v 0.371854 0.371853 h -0.37186 -0.37186 v 0.371862 0.371862 h -0.37186 -0.37185 v 0.371853 0.371862 h -0.37187 -0.37186 v 0.371862 0.371861 z M 44.446699,53.268404 H 44.07484 v -0.371853 -0.371864 h -0.371858 -0.371858 v -0.371858 -0.371854 h -0.371858 -0.371859 v -0.37186 -0.371859 H 42.21555 41.843689 V 50.665397 50.293539 H 41.47183 41.099975 v -0.37186 -0.371859 h -0.371861 -0.371858 v -0.371859 -0.371859 h -0.371859 -0.371858 v -0.371854 -0.371859 h 5.949735 5.949737 v 0.371859 0.371854 h -5.206018 -5.206018 v 0.371859 0.371859 h 0.371855 0.371859 v 0.371859 0.37186 h 0.371861 0.371857 v 0.371858 0.371859 h 0.371859 0.371858 v 0.371859 0.37186 h 0.371858 0.371858 v 0.371854 0.371858 h 0.371859 0.371858 v 0.371864 0.371853 z m 83.296291,0 h -0.37186 v -0.371853 -0.371864 h 0.37186 0.37186 v -0.371858 -0.371854 h 0.37186 0.37186 v -0.37186 -0.371859 h 0.37185 0.37186 v -0.371859 -0.371858 h 0.37186 0.37186 v -0.37186 -0.371859 h 0.37185 0.37187 v -0.371859 -0.371859 h -6.32159 -6.3216 v -0.371854 -0.371859 h 7.06531 7.06531 v 0.371859 0.371854 h -0.37186 -0.37185 v 0.371859 0.371859 h -0.37186 -0.37186 v 0.371859 0.37186 h -0.37187 -0.37185 v 0.371858 0.371859 h -0.37186 -0.37186 v 0.371859 0.37186 h -0.37186 -0.37185 v 0.371854 0.371858 h -0.37186 -0.37186 v 0.371864 0.371853 z M 77.913959,51.780975 h -0.371858 v -0.37186 -0.371859 H 77.170244 76.798383 V 50.665397 50.293539 H 76.426527 76.054666 V 49.921679 49.54982 H 75.682807 75.310949 V 48.620175 47.69053 h 1.487434 1.487435 v 2.045222 2.045223 z m 4.090441,0 h -2.974865 v -0.37186 -0.371859 h 2.974865 2.974871 v 0.371859 0.37186 z m -0.743717,-1.115578 h -2.231148 v -0.371858 -0.37186 h 2.231148 2.231152 v 0.37186 0.371858 z M 80.516967,49.54982 h -1.487432 v -0.371859 -0.371859 h 1.487432 1.487433 v 0.371859 0.371859 z M 74.195374,47.318671 H 73.823516 V 46.946813 46.574955 H 73.451658 73.0798 v -0.371858 -0.371861 h -0.371859 -0.371857 v -0.371859 -0.371858 h -0.37186 -0.37186 V 44.715661 44.343803 H 71.220508 70.84865 V 42.85637 41.368937 h 1.859291 1.859292 v 2.974866 2.974868 z m -0.743716,-1.487435 h 0.371858 v -1.859292 -1.859291 h -1.115575 -1.115577 v 1.115574 1.115576 h 0.37186 0.37186 v 0.371858 0.371858 h 0.371857 0.371859 v 0.371858 0.371859 z m 8.924603,1.487435 h -6.321595 v -0.371858 -0.371858 h 6.321595 6.321593 v 0.371858 0.371858 z m 0,-1.115574 h -5.577878 v -0.371861 -0.371859 h 5.577878 5.577878 v 0.371859 0.371861 z m 0,-1.115578 h -4.090443 v -0.371858 -0.371858 h 4.090443 4.090441 v 0.371858 0.371858 z M 80.888826,40.997076 H 71.592364 V 40.625218 40.25336 h 9.296462 9.296459 v 0.371858 0.371858 z m 0,-1.115575 H 73.0798 v -0.371858 -0.371859 h 7.809026 7.809028 v 0.371859 0.371858 z m 0,-1.115574 H 74.567233 V 38.394068 38.02221 h 6.321593 6.321594 v 0.371858 0.371859 z"
       id="path1" /></g></svg>
