<?xml version="1.0" encoding="UTF-8" standalone="no"?>
<!-- Created with Inkscape (http://www.inkscape.org/) -->

<svg
   width="210mm"
   height="297mm"
   viewBox="0 0 210 297"
   version="1.1"
   id="svg1"
   xml:space="preserve"
   inkscape:version="1.4 (86a8ad7, 2024-10-11)"
   sodipodi:docname="8bitlogo_bw_reduced.svg"
   xmlns:inkscape="http://www.inkscape.org/namespaces/inkscape"
   xmlns:sodipodi="http://sodipodi.sourceforge.net/DTD/sodipodi-0.dtd"
   xmlns="http://www.w3.org/2000/svg"
   xmlns:svg="http://www.w3.org/2000/svg"><sodipodi:namedview
     id="namedview1"
     pagecolor="#ffffff"
     bordercolor="#000000"
     borderopacity="0.25"
     inkscape:showpageshadow="2"
     inkscape:pageopacity="0.0"
     inkscape:pagecheckerboard="0"
     inkscape:deskcolor="#d1d1d1"
     inkscape:document-units="mm"
     inkscape:zoom="1.0823864"
     inkscape:cx="207.41207"
     inkscape:cy="461.48031"
     inkscape:window-width="2479"
     inkscape:window-height="1417"
     inkscape:window-x="73"
     inkscape:window-y="-8"
     inkscape:window-maximized="1"
     inkscape:current-layer="layer1" /><defs
     id="defs1" /><g
     inkscape:label="Warstwa 1"
     inkscape:groupmode="layer"
     id="layer1"><path
       style="fill:#000000;stroke-width:0.26093"
       d="m 20.745523,209.05483 h -4.602531 v -7.36405 -7.36404 h 1.840994 1.841024 v 5.52303 5.52304 h 0.920513 0.920512 v -2.76152 -2.76152 h 2.761506 2.761506 v -2.76151 -2.76152 h 1.841025 1.840994 v 4.60252 4.60254 H 28.10956 25.348054 v 2.76151 2.76152 z m 28.535661,0 h -7.364037 v -4.60253 -4.60253 h 7.364037 7.364037 v 1.84101 1.84102 h -5.523037 -5.523019 v 0.9205 0.92051 h 5.523019 5.523037 v 1.841 1.84102 z m 20.251118,0 h -1.841025 v -7.36405 -7.36404 h 1.841025 1.841018 v 7.36404 7.36405 z m 11.046055,0 h -1.841 v -5.52303 -5.52304 H 75.975826 73.21432 v -1.84101 -1.84101 h 4.602531 4.602525 v 7.36404 7.36405 z m 20.251143,0 h -1.841023 v -4.60253 -4.60253 h 1.841023 1.841 v 4.60253 4.60253 z m 23.93313,0 h -7.36404 v -7.36405 -7.36404 h 1.841 1.84102 v 5.52303 5.52304 h 5.52302 5.52304 v 1.841 1.84102 z m 20.25112,0 h -1.84102 v -4.60253 -4.60253 h 1.84102 1.841 v 4.60253 4.60253 z m 8.28455,0 h -4.60253 v -4.60253 -4.60253 h 2.7615 2.76154 v -0.92051 -0.9205 h -5.52304 -5.52304 v -1.84101 -1.84101 h 7.36406 7.36404 v 4.60252 4.60254 h -2.76154 -2.76151 v 0.9205 0.92051 h 2.76151 2.76154 v 1.841 1.84102 z m 22.09213,0 h -6.44355 v -4.60253 -4.60253 h 6.44355 6.44353 v 1.84101 1.84102 h -4.60253 -4.60253 v 0.9205 0.92051 h 4.60253 4.60253 v 1.841 1.84102 z m -45.10478,-5.52303 h -1.841 v -4.60254 -4.60252 h 1.841 1.84102 v 4.60252 4.60254 z m -81.004466,-5.52304 h -7.364037 v -1.84101 -1.84101 h 7.364037 7.364037 v 1.84101 1.84101 z m 51.548316,0 h -7.364066 v -1.84101 -1.84101 h 7.364066 7.36404 v 1.84101 1.84101 z m 74.56093,0 h -6.44355 v -1.84101 -1.84101 h 6.44355 6.44353 v 1.84101 1.84101 z M 49.281184,190.64472 h -7.364037 v -1.84101 -1.84101 h 5.523018 5.523037 v -2.76152 -2.76151 h 1.841025 1.840994 v 4.60252 4.60253 z m 25.774155,0 h -7.364062 v -1.84101 -1.84101 h 7.364062 7.364037 v 1.84101 1.84101 z m 24.853651,0 h -8.28455 v -7.36404 -7.36405 h 1.840994 1.841025 v 5.52304 5.52303 h 6.443521 6.44356 v 1.84101 1.84101 z m 24.85364,0 h -7.36404 v -7.36404 -7.36405 h 1.841 1.84102 v 5.52304 5.52303 h 5.52302 5.52304 v 1.84101 1.84101 z m 25.77416,0 h -1.84102 v -2.76152 -2.76152 h -2.76151 -2.76153 v -4.60252 -4.60253 h 1.84102 1.841 v 2.76152 2.76152 h 2.76153 2.7615 v 4.60252 4.60253 z M 43.758147,185.12168 h -1.841 v -4.60252 -4.60253 h 7.364037 7.364037 v 1.84101 1.84101 h -5.523037 -5.523019 v 2.76152 2.76151 z m 5.523037,0 h -1.841019 v -1.841 -1.84101 h 1.841019 1.841 v 1.84101 1.841 z m 25.774155,0 H 73.21432 v -1.841 -1.84101 h 1.841019 1.841 v 1.84101 1.841 z m 81.004461,0 h -1.84099 v -4.60252 -4.60253 h 1.84099 1.84103 v 4.60253 4.60252 z m -81.004461,-5.52303 h -7.364062 v -1.84101 -1.84101 h 7.364062 7.364037 v 1.84101 1.84101 z m -15.648612,-5.52303 h -0.920481 v -5.06278 -5.06278 h 0.920481 0.920513 v -0.9205 -0.92051 h 0.920512 0.920512 v -0.9205 -0.92051 h 0.920507 0.920487 v -0.9205 -0.92051 h 0.920513 0.920512 v -0.92051 -0.9205 h 0.920506 0.920488 v -0.92051 -0.9205 h 0.920512 0.920513 v -0.92051 -0.9205 h 0.920506 0.920512 v -0.92051 -0.9205 h 0.920488 0.920512 v -0.92051 -0.92051 h 0.920513 0.920506 v -0.9205 -0.9205 h 0.920487 0.920513 v -0.92051 -0.9205 h 0.920512 0.920506 v -0.92051 -0.92051 h 0.920513 0.920487 v -0.9205 -0.9205 h 0.920513 0.920506 v -0.92051 -0.92051 h 0.920512 0.920488 v -0.9205 -0.92051 h 0.920512 0.920509 v -0.9205 -0.92051 h 0.920512 0.920513 v -0.92051 -0.9205 h 0.920487 0.920506 v -0.9205 -0.92051 h 0.920513 0.920512 v -2.76152 -2.76151 h 0.920488 0.920506 v -0.92051 -0.92051 h 0.920512 0.920513 v 6.90379 6.9038 h -0.920513 -0.920512 v 0.9205 0.92051 H 92.544928 91.62444 v 0.92051 0.9205 h -0.920512 -0.920513 v 0.9205 0.92051 h -0.920506 -0.920487 v 0.92051 0.9205 h -0.920513 -0.920512 v 0.92051 0.9205 h -0.920509 -0.920512 v 0.9205 0.92051 h -0.920488 -0.920512 v 0.92051 0.9205 H 81.49887 80.578357 v 0.92051 0.9205 H 79.65787 78.737357 v 0.92051 0.9205 h -0.920506 -0.920512 v 0.92051 0.9205 h -0.920513 -0.920487 v 0.92051 0.92051 H 74.134833 73.21432 v 0.9205 0.92051 H 72.293808 71.37332 v 0.9205 0.92051 h -0.920512 -0.920506 v 0.9205 0.92051 h -0.920513 -0.920512 v 0.9205 0.92051 h -0.920488 -0.920506 v 0.92051 0.9205 h -0.920512 -0.920513 v 0.9205 0.92051 h -0.920487 -0.920507 v 0.9205 0.92051 H 61.247752 60.32724 v 0.92051 0.9205 z m 81.004493,0 h -0.92051 v -0.9205 -0.92051 h -0.92051 -0.92048 v -0.92051 -0.9205 h -0.92052 -0.92051 v -0.92051 -0.9205 h -0.92051 -0.92048 v -0.9205 -0.92051 h -0.92051 -0.92052 v -0.92051 -0.9205 h -0.9205 -0.92052 v -0.92051 -0.9205 h -0.92048 -0.92052 v -0.92051 -0.9205 h -0.92051 -0.92051 v -0.92051 -0.9205 h -0.92049 -0.92051 v -0.92051 -0.92051 h -0.92051 -0.92051 v -0.9205 -0.92051 h -0.92051 -0.92049 v -0.9205 -0.92051 h -0.92051 -0.92051 v -0.9205 -0.92051 h -0.92051 -0.92049 v -0.9205 -0.92051 h -0.92051 -0.9205 v -0.92051 -0.9205 h -0.92052 -0.92051 v -0.9205 -0.92051 h -0.92049 -0.9205 v -0.9205 -0.92051 h -0.92052 -0.92051 v -0.92051 -0.9205 h -0.92049 -0.9205 v -0.9205 -0.92051 h -0.92051 -0.92052 v -0.92051 -0.9205 h -0.92051 -0.92048 v -0.92051 -0.9205 h -0.92051 -0.92051 v -11.50633 -11.50631 h 0.92051 0.92051 v 0.9205 0.92051 h 0.92048 0.92051 v 0.9205 0.92051 h 0.92052 0.92051 v 0.92051 0.9205 h 0.9205 0.92049 v 7.36405 7.36404 h 0.92051 0.92052 v 0.9205 0.92051 h 0.9205 0.92049 v 0.92051 0.9205 h 0.92051 0.92052 v 0.92051 0.9205 h 0.9205 0.92051 v 0.92051 0.92051 h 0.92049 0.92051 v 0.9205 0.9205 h 0.92051 0.92051 v 0.92051 0.92051 h 0.92049 0.92051 v 0.9205 0.92051 h 0.92051 0.92051 v 0.9205 0.9205 h 0.92051 0.92049 v 0.92051 0.92051 h 0.92051 0.92051 v 0.9205 0.92051 h 0.92052 0.92048 v 0.9205 0.92051 h 0.92052 0.9205 v 0.9205 0.92051 h 0.92052 0.92051 v 0.9205 0.92051 h 0.92048 0.92051 v 0.92051 0.9205 h 0.92051 0.92052 v 0.92051 0.9205 h 0.92048 0.92051 v 0.92051 0.9205 h 0.92051 0.92051 v 5.06278 5.06278 z m -49.707292,-1.84101 h -6.443552 v -3.68202 -3.68202 h 0.920512 0.920509 v -0.92051 -0.9205 h 3.682018 3.682019 v -0.92051 -0.9205 h -4.602525 -4.602533 v -1.84101 -1.84102 h 5.523039 5.523044 v 0.92051 0.92051 h 0.920512 0.920482 v 2.76151 2.76152 h -0.920482 -0.920512 v 0.9205 0.92051 H 91.62444 87.942422 v 0.92051 0.9205 h 4.602506 4.602525 v 1.84101 1.84101 z m 19.330602,0 h -5.52301 v -1.84101 -1.84101 h 4.60252 4.60251 v -0.9205 -0.92051 h -4.60251 -4.60252 v -4.60253 -4.60253 h 6.44352 6.44355 v 1.84102 1.84101 h -4.60253 -4.60252 v 0.9205 0.92051 h 3.68202 3.68202 v 0.9205 0.92051 h 0.9205 0.92051 v 2.76152 2.76151 h -0.92051 -0.9205 v 0.9205 0.92051 z M 77.816851,128.97086 H 76.896339 V 111.9415 94.912157 h 0.920512 0.920506 v -0.920506 -0.920505 h 0.920513 0.920487 v -0.920505 -0.920506 h 0.920513 0.920506 V 90.30963 89.389125 H 67.691277 52.963202 v 1.84101 1.841011 h 0.920513 0.920512 v 0.920505 0.920506 h 0.920482 0.920512 v 0.920506 0.920505 h 0.920512 0.920513 v 0.920505 0.920506 h 0.920481 0.920513 v 0.920505 0.920506 h 0.920512 0.920512 v 0.9205 0.92051 h 0.920507 0.920487 v 0.9205 0.92051 h 0.920513 0.920512 v 0.92051 0.9205 h 0.920506 0.920488 v 0.92051 0.9205 h 0.920512 0.920513 v 0.92051 0.9205 h 0.920506 0.920512 v 0.92051 0.9205 h 0.920488 0.920512 v 0.9205 0.92051 h 0.920513 0.920506 v 4.60253 4.60253 H 74.134833 73.21432 v -0.92051 -0.9205 H 72.293808 71.37332 v -0.92051 -0.9205 h -0.920512 -0.920506 v -0.92051 -0.92051 h -0.920513 -0.920512 v -0.9205 -0.92051 h -0.920488 -0.920506 v -0.9205 -0.92051 h -0.920512 -0.920513 v -0.92051 -0.9205 h -0.920487 -0.920507 v -0.9205 -0.92051 H 61.247752 60.32724 v -0.9205 -0.92051 h -0.920513 -0.920481 v -0.9205 -0.92051 h -0.920513 -0.920512 v -0.9205 -0.92051 h -0.920512 -0.920482 v -0.92051 -0.9205 h -0.920512 -0.920513 v -0.92051 -0.9205 H 52.04269 51.122184 V 99.514684 98.594179 H 50.201696 49.281184 V 97.673673 96.753168 H 48.360672 47.440165 V 95.832663 94.912157 H 46.519678 45.599165 V 93.991651 93.071146 H 44.678653 43.758147 V 92.150641 91.230135 H 42.837634 41.917147 V 90.30963 89.389125 h -0.920513 -0.920506 v -0.920506 -0.920505 h -0.920512 -0.920488 v -0.920505 -0.920506 h -0.920513 -0.920506 v -0.920505 -0.920505 h -0.920512 -0.920513 v -0.920506 -0.920506 h 22.092137 22.092136 v 0.920506 0.920506 h 0.920513 0.920487 v 0.920505 0.920505 h 0.920513 0.920506 v 0.920506 0.920505 h 0.920512 0.920488 v 17.949856 17.94985 h -0.920488 -0.920512 v 0.92051 0.9205 H 81.49887 80.578357 v 0.92051 0.92051 H 79.65787 78.737357 v 0.9205 0.92051 z m 46.025269,-7.36405 h -0.92051 v -0.9205 -0.92051 h -0.92051 -0.92049 v -0.9205 -0.92051 h -0.92051 -0.92051 v -0.92051 -0.9205 h -0.92051 -0.92049 V 102.73645 89.389125 h 0.92049 0.92051 v 0.920505 0.920505 h 0.92051 0.92051 v 0.920506 0.920505 h 0.92049 0.92051 v 0.920505 0.920506 h 0.92051 0.92051 v 13.347333 13.34732 z m 5.52305,-0.9205 h -0.92052 v -5.52304 -5.52303 h 0.92052 0.92048 v -0.9205 -0.92051 h 0.92052 0.9205 v -0.9205 -0.92051 h 0.92052 0.92051 v -0.9205 -0.92051 h 0.92048 0.92051 v -0.92051 -0.9205 h 0.92051 0.92052 v -0.92051 -0.9205 h 0.92048 0.92051 v -0.920506 -0.920505 h 0.92051 0.92051 v -0.920506 -0.920505 h 0.92051 0.92049 v -0.920505 -0.920506 h 0.92051 0.92051 v -0.920506 -0.920505 h 0.92051 0.92049 v -0.920505 -0.920506 h 0.92051 0.92051 V 90.30963 89.389125 h 0.92051 0.92051 v -0.920506 -0.920505 h 0.92048 0.92051 v -0.920505 -0.920506 h 0.92052 0.92051 v -0.920505 -0.920505 h 0.92048 0.92051 v -0.920506 -0.920506 h 5.52305 5.52303 v 0.920506 0.920506 h -0.92051 -0.9205 v 0.920505 0.920505 h -0.92052 -0.92051 v 0.920506 0.920505 h -0.92049 -0.9205 v 0.920505 0.920506 h -0.92052 -0.92051 v 0.920505 0.920505 h -0.92048 -0.92051 v 0.920506 0.920505 h -0.92051 -0.92052 v 0.920505 0.920506 h -0.92051 -0.92048 v 0.920506 0.920505 h -0.92051 -0.92052 v 0.920505 0.920506 h -0.92051 -0.92048 v 0.920505 0.920506 h -0.92051 -0.92051 v 0.9205 0.92051 h -0.92051 -0.92051 v 0.9205 0.92051 h -0.92049 -0.92051 v 0.92051 0.9205 h -0.92051 -0.92051 v 0.92051 0.9205 h -0.92049 -0.92051 v 0.92051 0.9205 h -0.92051 -0.92051 v 0.92051 0.9205 h -0.92051 -0.92048 v 0.9205 0.92051 h -0.92052 -0.92051 v 0.92051 0.9205 h -0.92051 -0.92048 v 0.92051 0.9205 h -0.92051 -0.92052 v 0.92051 0.92051 h -0.9205 -0.92052 v 0.9205 0.92051 z M 92.544928,114.24277 H 91.62444 V 96.292915 78.34306 h 3.682019 3.682018 v 15.188339 15.188341 h -0.920512 -0.920512 v 0.9205 0.92051 h -0.920482 -0.920512 v 0.9205 0.9205 h -0.920513 -0.920512 v 0.92051 0.92051 z m 16.569112,-7.36404 h -0.9205 v -0.92051 -0.9205 h -0.92051 -0.92052 v -0.92051 -0.92051 h -0.92051 -0.92048 v -0.9205 -0.92051 h -0.92051 -0.92051 V 84.786598 68.217501 h 3.68201 3.68202 v 19.330613 19.330616 z m 28.53568,-17.489605 h -9.20507 v -0.920506 -0.920505 h 0.92052 0.92048 v -0.920505 -0.920506 h 0.92052 0.9205 v -0.920505 -0.920505 h 0.92052 0.92051 v -0.920506 -0.920506 h 9.20503 9.20505 v 0.920506 0.920506 h -0.92051 -0.92048 v 0.920505 0.920505 h -0.92051 -0.92051 v 0.920506 0.920505 h -0.92051 -0.92051 v 0.920505 0.920506 z M 81.49887,77.422555 H 80.578357 V 76.502049 75.581544 H 79.65787 78.737357 v -0.920505 -0.920506 h -0.920506 -0.920512 v -0.920505 -0.920505 h -0.920513 -0.920487 v -1.841011 -1.841011 h 3.682018 3.682019 v 4.602527 4.602527 z m 8.284545,0 h -5.523039 v -0.920506 -0.920505 h 5.523039 5.523044 v 0.920505 0.920506 z m -1.840993,-3.682022 h -3.682046 v -0.920505 -0.920505 h 3.682046 3.682018 v 0.920505 0.920505 z M 92.544928,66.37649 H 78.737357 V 65.455985 64.53548 h 13.807571 13.807582 v 0.920505 0.920505 z m 0,-3.682021 H 82.419376 V 61.773963 60.853457 H 92.544928 102.6705 v 0.920506 0.920506 z"
       id="path38" /></g></svg>
